STARTFONT 2.3
FONT -FontForge-Hanalei-Book-R-Normal--20-200-72-72-P-101-ISO10646-1
SIZE 20 72 72  2
FONTBOUNDINGBOX 26 26 -1 -5
COMMENT "Generated by fontforge, http://fontforge.sourceforge.net"
COMMENT "Copyright (c) 2012 by Brian J. Bonislawsky DBA Astigmatic (AOETI) (astigma@astigmatic.com), with ReservedFont Name "Hanalei""
STARTPROPERTIES 40
FOUNDRY "FontForge"
FAMILY_NAME "Hanalei"
WEIGHT_NAME "Book"
SLANT "R"
SETWIDTH_NAME "Normal"
ADD_STYLE_NAME ""
PIXEL_SIZE 20
POINT_SIZE 200
RESOLUTION_X 72
RESOLUTION_Y 72
SPACING "P"
AVERAGE_WIDTH 101
CHARSET_REGISTRY "ISO10646"
CHARSET_ENCODING "1"
FONTNAME_REGISTRY ""
CHARSET_COLLECTIONS "ISO8859-2 ISO8859-9 ISO8859-4 ISO10646-1"
BITS_PER_PIXEL 2
FONT_NAME "Hanalei-Regular"
FACE_NAME "Hanalei"
COPYRIGHT "Copyright (c) 2012 by Brian J. Bonislawsky DBA Astigmatic (AOETI) (astigma@astigmatic.com), with ReservedFont Name "Hanalei""
FONT_VERSION "1.000"
FONT_ASCENT 16
FONT_DESCENT 4
UNDERLINE_POSITION -3
UNDERLINE_THICKNESS 1
X_HEIGHT 13
CAP_HEIGHT 13
RAW_ASCENT 799
RAW_DESCENT 200
NORM_SPACE 4
RELATIVE_WEIGHT 40
RELATIVE_SETWIDTH 50
SUPERSCRIPT_X 0
SUPERSCRIPT_Y 9
SUPERSCRIPT_SIZE 12
SUBSCRIPT_X 0
SUBSCRIPT_Y 2
SUBSCRIPT_SIZE 12
AVG_LOWERCASE_WIDTH 107
AVG_UPPERCASE_WIDTH 105
ENDPROPERTIES
CHARS 366
STARTCHAR space
ENCODING 32
SWIDTH 200 0
DWIDTH 4 0
BBX 1 1 0 0
BITMAP
00
ENDCHAR
STARTCHAR exclam
ENCODING 33
SWIDTH 257 0
DWIDTH 5 0
BBX 5 15 0 -1
BITMAP
1500
5040
1140
1140
1140
6540
1100
2100
1100
2600
0400
2500
1100
2600
0400
ENDCHAR
STARTCHAR quotedbl
ENCODING 34
SWIDTH 476 0
DWIDTH 10 0
BBX 9 9 0 6
BITMAP
151540
516080
111040
551440
556540
511040
511040
516080
150500
ENDCHAR
STARTCHAR numbersign
ENCODING 35
SWIDTH 1076 0
DWIDTH 22 0
BBX 21 14 0 0
BITMAP
2A909925A640
20A145405180
206044405580
205444A66040
259995411440
108644411040
20824442A680
208144955080
25A595504040
206045255640
104414050400
104818215500
504425100100
2642A8155500
ENDCHAR
STARTCHAR dollar
ENCODING 36
SWIDTH 453 0
DWIDTH 9 0
BBX 9 19 0 -3
BITMAP
015000
011400
011000
012A00
069040
544040
401900
529000
54A000
154600
024040
019140
159940
405540
406400
261000
011000
011000
015000
ENDCHAR
STARTCHAR percent
ENCODING 37
SWIDTH 889 0
DWIDTH 18 0
BBX 18 14 0 0
BITMAP
1550140000
6414550000
4554410000
4444440000
4444840000
5584540000
5045455500
1561165080
0002552550
0001211440
0001111440
0004115840
0004160550
0001415640
ENDCHAR
STARTCHAR ampersand
ENCODING 38
SWIDTH 627 0
DWIDTH 13 0
BBX 13 16 0 -1
BITMAP
01500000
02965400
08115800
08261800
01150400
01182000
01444000
06424000
04414000
10559A00
41644040
82941140
A8441900
40591400
59425000
10000000
ENDCHAR
STARTCHAR quotesingle
ENCODING 39
SWIDTH 246 0
DWIDTH 5 0
BBX 5 9 0 6
BITMAP
1500
5140
1100
5500
5540
5100
5100
5140
1500
ENDCHAR
STARTCHAR parenleft
ENCODING 40
SWIDTH 387 0
DWIDTH 8 0
BBX 9 16 -1 -1
BITMAP
005900
004200
014500
020800
045400
042000
204000
508000
258000
152000
041400
028400
014200
008040
002080
001600
ENDCHAR
STARTCHAR parenright
ENCODING 41
SWIDTH 386 0
DWIDTH 8 0
BBX 8 16 0 -1
BITMAP
1600
1040
2040
0460
0554
0108
0145
0082
0196
0218
0914
14A0
2050
8140
8200
6900
ENDCHAR
STARTCHAR asterisk
ENCODING 42
SWIDTH 517 0
DWIDTH 10 0
BBX 10 10 0 5
BITMAP
005000
004400
005400
559550
415810
160550
025500
089100
154480
050500
ENDCHAR
STARTCHAR plus
ENCODING 43
SWIDTH 458 0
DWIDTH 9 0
BBX 9 9 0 2
BITMAP
015000
010400
165500
555540
405040
555540
115100
011000
019000
ENDCHAR
STARTCHAR comma
ENCODING 44
SWIDTH 228 0
DWIDTH 5 0
BBX 5 6 -1 -3
BITMAP
0640
0480
1040
4140
5100
1400
ENDCHAR
STARTCHAR hyphen
ENCODING 45
SWIDTH 465 0
DWIDTH 9 0
BBX 9 5 0 4
BITMAP
155100
515580
401040
555540
100000
ENDCHAR
STARTCHAR period
ENCODING 46
SWIDTH 202 0
DWIDTH 4 0
BBX 4 4 0 -1
BITMAP
55
41
55
14
ENDCHAR
STARTCHAR slash
ENCODING 47
SWIDTH 453 0
DWIDTH 9 0
BBX 9 14 0 0
BITMAP
001900
001140
005140
008200
019100
010400
010400
041000
095000
145000
208000
504000
510000
1A0000
ENDCHAR
STARTCHAR zero
ENCODING 48
SWIDTH 646 0
DWIDTH 13 0
BBX 13 15 0 0
BITMAP
00500000
008A0000
01424000
05085000
0A181400
10515400
50824200
99004080
82006040
80525540
20655900
06141400
02905000
00814000
00250000
ENDCHAR
STARTCHAR one
ENCODING 49
SWIDTH 400 0
DWIDTH 8 0
BBX 8 15 0 -1
BITMAP
0294
0945
5044
4144
8595
1545
0144
0044
0155
0155
0144
0144
0104
0159
0050
ENDCHAR
STARTCHAR two
ENCODING 50
SWIDTH 502 0
DWIDTH 10 0
BBX 10 14 0 0
BITMAP
015400
052500
142200
509080
811420
290850
002160
019080
021600
140800
206040
60A550
461010
655590
ENDCHAR
STARTCHAR three
ENCODING 51
SWIDTH 456 0
DWIDTH 9 0
BBX 9 15 0 -1
BITMAP
254000
505800
500600
259840
024600
085800
216000
251400
090240
019A80
169080
504080
805500
554000
100000
ENDCHAR
STARTCHAR four
ENCODING 52
SWIDTH 514 0
DWIDTH 10 0
BBX 10 15 0 -1
BITMAP
005940
004840
010480
051480
0A3540
106040
516590
425520
841410
195590
001040
001040
002040
002580
000500
ENDCHAR
STARTCHAR five
ENCODING 53
SWIDTH 500 0
DWIDTH 10 0
BBX 10 14 0 0
BITMAP
196580
111040
111040
125540
110000
666540
201580
101410
055810
000410
159950
405490
404080
655580
ENDCHAR
STARTCHAR six
ENCODING 54
SWIDTH 520 0
DWIDTH 10 0
BBX 11 15 0 -1
BITMAP
025000
051400
042000
081000
195000
146000
104500
204280
259524
115A44
5154A0
824050
810540
6A2400
014000
ENDCHAR
STARTCHAR seven
ENCODING 55
SWIDTH 423 0
DWIDTH 8 0
BBX 9 14 0 0
BITMAP
569600
404140
404140
55A640
008200
009500
014500
020800
024400
051400
042000
081000
101000
099000
ENDCHAR
STARTCHAR eight
ENCODING 56
SWIDTH 527 0
DWIDTH 11 0
BBX 11 15 0 -1
BITMAP
156590
101020
5012A0
659820
105410
056040
051540
060600
044600
10A440
116040
825420
510824
195AB0
040000
ENDCHAR
STARTCHAR nine
ENCODING 57
SWIDTH 500 0
DWIDTH 10 0
BBX 10 15 0 -1
BITMAP
001900
069190
944150
405920
866440
956540
205040
084200
028100
011500
020800
041400
082000
056000
004000
ENDCHAR
STARTCHAR colon
ENCODING 58
SWIDTH 245 0
DWIDTH 5 0
BBX 3 12 1 -1
BITMAP
10
88
44
54
00
00
00
00
94
44
98
10
ENDCHAR
STARTCHAR semicolon
ENCODING 59
SWIDTH 270 0
DWIDTH 5 0
BBX 5 14 0 -3
BITMAP
0500
1540
1040
1540
0000
0000
0000
0000
0900
1140
5140
4100
4400
5400
ENDCHAR
STARTCHAR less
ENCODING 60
SWIDTH 445 0
DWIDTH 9 0
BBX 9 12 0 1
BITMAP
000400
002600
028140
184240
501400
409000
664000
442400
144600
024140
006200
000400
ENDCHAR
STARTCHAR equal
ENCODING 61
SWIDTH 484 0
DWIDTH 10 0
BBX 9 9 0 3
BITMAP
155140
112580
501040
255580
000000
155140
112580
501040
255580
ENDCHAR
STARTCHAR greater
ENCODING 62
SWIDTH 445 0
DWIDTH 9 0
BBX 9 12 0 1
BITMAP
040000
260000
509000
605900
050140
018140
016640
060440
644500
506000
224000
040000
ENDCHAR
STARTCHAR question
ENCODING 63
SWIDTH 455 0
DWIDTH 9 0
BBX 9 15 0 -1
BITMAP
290000
406400
401540
254040
00A580
050240
081400
165000
048000
158000
010000
154000
104000
154000
050000
ENDCHAR
STARTCHAR at
ENCODING 64
SWIDTH 812 0
DWIDTH 16 0
BBX 15 16 1 -1
BITMAP
15514100
51659A40
90104840
59555840
44565550
95011510
445A5510
45050550
45104514
99965944
46410544
44955464
49410550
58540000
24450000
01540000
ENDCHAR
STARTCHAR A
ENCODING 65
SWIDTH 507 0
DWIDTH 10 0
BBX 11 14 0 0
BITMAP
069000
041800
042100
081100
195200
146540
106140
205090
25A954
115404
510564
825910
810420
650690
ENDCHAR
STARTCHAR B
ENCODING 66
SWIDTH 533 0
DWIDTH 11 0
BBX 11 16 0 -1
BITMAP
064000
285400
240950
294414
20A404
255960
10A020
215140
214940
25A020
105810
21A664
2510A4
600640
205400
060000
ENDCHAR
STARTCHAR C
ENCODING 67
SWIDTH 515 0
DWIDTH 10 0
BBX 11 15 0 -1
BITMAP
156950
100410
100414
199560
254000
108000
104000
204000
254000
114000
516960
811414
660450
255950
040000
ENDCHAR
STARTCHAR D
ENCODING 68
SWIDTH 520 0
DWIDTH 10 0
BBX 11 16 0 -1
BITMAP
014000
295000
281400
250600
214640
259450
105414
214514
1146A4
256414
10D450
114140
114500
505400
265000
004000
ENDCHAR
STARTCHAR E
ENCODING 69
SWIDTH 490 0
DWIDTH 10 0
BBX 10 14 0 0
BITMAP
26A590
205010
205010
209550
254000
109500
214100
114100
259900
104000
11A580
115010
505010
265580
ENDCHAR
STARTCHAR F
ENCODING 70
SWIDTH 475 0
DWIDTH 10 0
BBX 10 14 0 0
BITMAP
26A590
205010
205010
209550
254000
109500
214100
114100
259900
104000
114000
114000
504000
264000
ENDCHAR
STARTCHAR G
ENCODING 71
SWIDTH 557 0
DWIDTH 11 0
BBX 11 15 0 -1
BITMAP
156950
100410
100414
199560
254000
108040
104254
204104
254104
114258
516604
811504
660508
255A54
040000
ENDCHAR
STARTCHAR H
ENCODING 72
SWIDTH 611 0
DWIDTH 12 0
BBX 12 14 0 0
BITMAP
264158
204204
204104
204104
254258
104208
214109
214291
25A441
105056
115644
119108
504208
264164
ENDCHAR
STARTCHAR I
ENCODING 73
SWIDTH 266 0
DWIDTH 5 0
BBX 5 14 0 0
BITMAP
2640
2040
2040
2040
2540
1040
2140
2140
2540
1040
1140
1140
5040
2640
ENDCHAR
STARTCHAR J
ENCODING 74
SWIDTH 484 0
DWIDTH 10 0
BBX 10 15 -1 -1
BITMAP
0006A0
000410
000410
000410
000950
000820
040410
260810
504960
206820
095820
060520
014220
004250
002400
ENDCHAR
STARTCHAR K
ENCODING 75
SWIDTH 541 0
DWIDTH 11 0
BBX 11 14 0 0
BITMAP
264050
204154
204508
205814
25A550
108180
214200
118900
259480
10A540
115410
114820
504414
264250
ENDCHAR
STARTCHAR L
ENCODING 76
SWIDTH 467 0
DWIDTH 9 0
BBX 10 14 0 0
BITMAP
264000
204000
204000
204000
254000
104000
214000
214000
254000
104000
11A550
115010
509010
26A590
ENDCHAR
STARTCHAR M
ENCODING 77
SWIDTH 733 0
DWIDTH 15 0
BBX 15 14 0 0
BITMAP
05902600
08205140
08244180
14444140
25499540
10564650
10830810
10920810
24515920
51655660
41106110
81146114
81042108
69098264
ENDCHAR
STARTCHAR N
ENCODING 78
SWIDTH 598 0
DWIDTH 12 0
BBX 12 14 0 0
BITMAP
2A8098
209145
206044
205544
259994
104604
214244
218148
259594
116084
115454
114818
504424
2646E8
ENDCHAR
STARTCHAR O
ENCODING 79
SWIDTH 612 0
DWIDTH 12 0
BBX 12 15 0 -1
BITMAP
156964
100418
100418
1996A4
254154
108144
104044
204045
254095
114081
516999
810406
66041A
259568
040000
ENDCHAR
STARTCHAR P
ENCODING 80
SWIDTH 513 0
DWIDTH 10 0
BBX 11 16 0 -1
BITMAP
060000
185400
240A40
290454
219404
254650
105460
21A050
214500
244400
259000
114000
114000
504000
554000
040000
ENDCHAR
STARTCHAR Q
ENCODING 81
SWIDTH 612 0
DWIDTH 12 0
BBX 12 17 0 -3
BITMAP
156964
100418
100418
1996A4
254154
108144
104044
204045
254095
114081
516999
810406
66041A
25A668
044100
004100
005500
ENDCHAR
STARTCHAR R
ENCODING 82
SWIDTH 532 0
DWIDTH 11 0
BBX 11 16 0 -1
BITMAP
010000
189400
240A00
290464
219404
245A54
205460
11A550
215240
209040
25A140
118910
114414
504108
514154
150040
ENDCHAR
STARTCHAR S
ENCODING 83
SWIDTH 442 0
DWIDTH 9 0
BBX 9 16 0 -1
BITMAP
000100
159540
654080
415540
519000
204000
155000
082000
050800
011500
008200
169140
946080
406640
555500
100000
ENDCHAR
STARTCHAR T
ENCODING 84
SWIDTH 453 0
DWIDTH 9 0
BBX 9 14 0 0
BITMAP
959580
404040
455540
566540
010400
065400
011400
011000
011400
065400
011400
011000
041400
066400
ENDCHAR
STARTCHAR U
ENCODING 85
SWIDTH 583 0
DWIDTH 12 0
BBX 12 15 0 -1
BITMAP
194264
104104
104104
108104
258258
104208
104208
114208
654258
114258
516668
815018
561065
2556A8
050000
ENDCHAR
STARTCHAR V
ENCODING 86
SWIDTH 506 0
DWIDTH 10 0
BBX 10 15 0 -1
BITMAP
140140
820560
820410
410410
514950
245450
105440
10A040
146540
095140
085100
048100
058100
056900
014000
ENDCHAR
STARTCHAR W
ENCODING 87
SWIDTH 735 0
DWIDTH 15 0
BBX 15 15 0 -1
BITMAP
14000150
82054114
81144514
42185410
51681910
64565860
10511410
10911440
14966440
09825540
08415080
04456040
06049040
05A86540
01400500
ENDCHAR
STARTCHAR X
ENCODING 88
SWIDTH 483 0
DWIDTH 10 0
BBX 10 14 0 0
BITMAP
150500
520980
811450
209080
109100
0A4600
060400
051800
0A2600
105100
109040
811050
820450
290540
ENDCHAR
STARTCHAR Y
ENCODING 89
SWIDTH 484 0
DWIDTH 10 0
BBX 11 14 -1 0
BITMAP
050090
220108
504108
105514
085A10
061450
011040
009040
005540
008200
014500
020800
020400
00A400
ENDCHAR
STARTCHAR Z
ENCODING 90
SWIDTH 458 0
DWIDTH 9 0
BBX 9 14 0 0
BITMAP
159600
104080
104080
159680
009200
011500
020800
081400
1A2000
205000
509600
424040
814040
2A5600
ENDCHAR
STARTCHAR bracketleft
ENCODING 91
SWIDTH 420 0
DWIDTH 8 0
BBX 8 17 0 -1
BITMAP
0004
0556
2901
1056
1140
1100
6540
5140
1100
1100
5140
5540
1100
5100
4196
5541
0A56
ENDCHAR
STARTCHAR backslash
ENCODING 92
SWIDTH 453 0
DWIDTH 9 0
BBX 9 14 0 0
BITMAP
150000
510000
514000
208000
159000
081000
041000
010400
021800
014100
008200
005040
001140
001900
ENDCHAR
STARTCHAR bracketright
ENCODING 93
SWIDTH 420 0
DWIDTH 8 0
BBX 8 17 0 -1
BITMAP
1000
5550
4069
5541
0181
0041
0056
0042
0041
0041
0046
0096
0041
0081
5581
8096
5564
ENDCHAR
STARTCHAR asciicircum
ENCODING 94
SWIDTH 353 0
DWIDTH 7 0
BBX 7 5 0 8
BITMAP
0A80
1490
2220
4544
2454
ENDCHAR
STARTCHAR underscore
ENCODING 95
SWIDTH 499 0
DWIDTH 10 0
BBX 8 4 1 -5
BITMAP
5555
4496
4041
9556
ENDCHAR
STARTCHAR grave
ENCODING 96
SWIDTH 183 0
DWIDTH 4 0
BBX 4 5 0 15
BITMAP
14
84
44
11
15
ENDCHAR
STARTCHAR a
ENCODING 97
SWIDTH 507 0
DWIDTH 10 0
BBX 11 14 0 0
BITMAP
069000
041800
042100
081100
195200
146540
106140
205090
25A954
115404
510564
825910
810420
650690
ENDCHAR
STARTCHAR b
ENCODING 98
SWIDTH 533 0
DWIDTH 11 0
BBX 11 16 0 -1
BITMAP
064000
285400
240950
294414
20A404
255960
10A020
215140
214940
25A020
105810
21A664
2510A4
600640
205400
060000
ENDCHAR
STARTCHAR c
ENCODING 99
SWIDTH 515 0
DWIDTH 10 0
BBX 11 15 0 -1
BITMAP
156950
100410
100414
199560
254000
108000
104000
204000
254000
114000
516960
811414
660450
255950
040000
ENDCHAR
STARTCHAR d
ENCODING 100
SWIDTH 520 0
DWIDTH 10 0
BBX 11 16 0 -1
BITMAP
014000
295000
281400
250600
214640
259450
105414
214514
1146A4
256414
10D450
114140
114500
505400
265000
004000
ENDCHAR
STARTCHAR e
ENCODING 101
SWIDTH 490 0
DWIDTH 10 0
BBX 10 14 0 0
BITMAP
26A590
205010
205010
209550
254000
109500
214100
114100
259900
104000
11A580
115010
505010
265580
ENDCHAR
STARTCHAR f
ENCODING 102
SWIDTH 475 0
DWIDTH 10 0
BBX 10 14 0 0
BITMAP
26A590
205010
205010
209550
254000
109500
214100
114100
259900
104000
114000
114000
504000
264000
ENDCHAR
STARTCHAR g
ENCODING 103
SWIDTH 557 0
DWIDTH 11 0
BBX 11 15 0 -1
BITMAP
156950
100410
100414
199560
254000
108040
104254
204104
254104
114258
516604
811504
660508
255A54
040000
ENDCHAR
STARTCHAR h
ENCODING 104
SWIDTH 611 0
DWIDTH 12 0
BBX 12 14 0 0
BITMAP
264158
204204
204104
204104
254258
104208
214109
214291
25A441
105056
115644
119108
504208
264164
ENDCHAR
STARTCHAR i
ENCODING 105
SWIDTH 266 0
DWIDTH 5 0
BBX 5 14 0 0
BITMAP
2640
2040
2040
2040
2540
1040
2140
2140
2540
1040
1140
1140
5040
2640
ENDCHAR
STARTCHAR j
ENCODING 106
SWIDTH 482 0
DWIDTH 10 0
BBX 10 15 -1 -1
BITMAP
0006A0
000410
000410
000410
000950
000820
040410
260810
504960
206820
095820
060520
014220
004250
002400
ENDCHAR
STARTCHAR k
ENCODING 107
SWIDTH 541 0
DWIDTH 11 0
BBX 11 14 0 0
BITMAP
264050
204154
204508
205814
25A550
108180
214200
118900
259480
10A540
115410
114820
504414
264250
ENDCHAR
STARTCHAR l
ENCODING 108
SWIDTH 467 0
DWIDTH 9 0
BBX 10 14 0 0
BITMAP
264000
204000
204000
204000
254000
104000
214000
214000
254000
104000
11A550
115010
509010
26A590
ENDCHAR
STARTCHAR m
ENCODING 109
SWIDTH 733 0
DWIDTH 15 0
BBX 15 14 0 0
BITMAP
05902600
08205140
08244180
14444140
25499540
10564650
10830810
10920810
24515920
51655660
41106110
81146114
81042108
69098264
ENDCHAR
STARTCHAR n
ENCODING 110
SWIDTH 598 0
DWIDTH 12 0
BBX 12 14 0 0
BITMAP
2A8098
209145
206044
205544
259994
104604
214244
218148
259594
116084
115454
114818
504424
2646E8
ENDCHAR
STARTCHAR o
ENCODING 111
SWIDTH 612 0
DWIDTH 12 0
BBX 12 15 0 -1
BITMAP
156964
100418
100418
1996A4
254154
108144
104044
204045
254095
114081
516999
810406
66041A
259568
040000
ENDCHAR
STARTCHAR p
ENCODING 112
SWIDTH 513 0
DWIDTH 10 0
BBX 11 16 0 -1
BITMAP
060000
185400
240A40
290454
219404
254650
105460
21A050
214500
244400
259000
114000
114000
504000
554000
040000
ENDCHAR
STARTCHAR q
ENCODING 113
SWIDTH 612 0
DWIDTH 12 0
BBX 12 17 0 -3
BITMAP
156964
100418
100418
1996A4
254154
108144
104044
204045
254095
114081
516999
810406
66041A
25A668
044100
004100
005500
ENDCHAR
STARTCHAR r
ENCODING 114
SWIDTH 532 0
DWIDTH 11 0
BBX 11 16 0 -1
BITMAP
010000
189400
240A00
290464
219404
245A54
205460
11A550
215240
209040
25A140
118910
114414
504108
514154
150040
ENDCHAR
STARTCHAR s
ENCODING 115
SWIDTH 442 0
DWIDTH 9 0
BBX 9 16 0 -1
BITMAP
000100
159540
654080
415540
519000
204000
155000
082000
050800
011500
008200
169140
946080
406640
555500
100000
ENDCHAR
STARTCHAR t
ENCODING 116
SWIDTH 453 0
DWIDTH 9 0
BBX 9 14 0 0
BITMAP
959580
404040
455540
566540
010400
065400
011400
011000
011400
065400
011400
011000
041400
066400
ENDCHAR
STARTCHAR u
ENCODING 117
SWIDTH 583 0
DWIDTH 12 0
BBX 12 15 0 -1
BITMAP
194264
104104
104104
108104
258258
104208
104208
114208
654258
114258
516668
815018
561065
2556A8
050000
ENDCHAR
STARTCHAR v
ENCODING 118
SWIDTH 506 0
DWIDTH 10 0
BBX 10 15 0 -1
BITMAP
140140
820560
820410
410410
514950
245450
105440
10A040
146540
095140
085100
048100
058100
056900
014000
ENDCHAR
STARTCHAR w
ENCODING 119
SWIDTH 735 0
DWIDTH 15 0
BBX 15 15 0 -1
BITMAP
14000150
82054114
81144514
42185410
51681910
64565860
10511410
10911440
14966440
09825540
08415080
04456040
06049040
05A86540
01400500
ENDCHAR
STARTCHAR x
ENCODING 120
SWIDTH 483 0
DWIDTH 10 0
BBX 10 14 0 0
BITMAP
150500
520980
811450
209080
109100
0A4600
060400
051800
0A2600
105100
109040
811050
820450
290540
ENDCHAR
STARTCHAR y
ENCODING 121
SWIDTH 484 0
DWIDTH 10 0
BBX 11 14 -1 0
BITMAP
050090
220108
504108
105514
085A10
061450
011040
009040
005540
008200
014500
020800
020400
00A400
ENDCHAR
STARTCHAR z
ENCODING 122
SWIDTH 458 0
DWIDTH 9 0
BBX 9 14 0 0
BITMAP
159600
104080
104080
159680
009200
011500
020800
081400
1A2000
205000
509600
424040
814040
2A5600
ENDCHAR
STARTCHAR braceleft
ENCODING 123
SWIDTH 473 0
DWIDTH 9 0
BBX 10 17 0 -2
BITMAP
015580
081050
081580
011400
024400
020400
966100
401500
852900
155400
024400
055400
082000
142580
085040
029580
000100
ENDCHAR
STARTCHAR bar
ENCODING 124
SWIDTH 263 0
DWIDTH 5 0
BBX 5 17 0 -1
BITMAP
0400
2540
1040
1040
2140
2440
6540
1140
2140
1140
2540
1140
1140
1140
1140
5040
2A00
ENDCHAR
STARTCHAR braceright
ENCODING 125
SWIDTH 473 0
DWIDTH 9 0
BBX 10 18 0 -2
BITMAP
100000
555400
404500
554400
024400
016400
041000
056590
0A0010
0A1550
086140
012400
014400
010400
554200
408500
55A400
100000
ENDCHAR
STARTCHAR asciitilde
ENCODING 126
SWIDTH 456 0
DWIDTH 9 0
BBX 9 5 0 5
BITMAP
098940
149440
122100
454900
14A800
ENDCHAR
STARTCHAR nonbreakingspace
ENCODING 160
SWIDTH 200 0
DWIDTH 4 0
BBX 1 1 0 0
BITMAP
00
ENDCHAR
STARTCHAR exclamdown
ENCODING 161
SWIDTH 259 0
DWIDTH 5 0
BBX 5 15 0 -1
BITMAP
1500
1140
2140
0500
1500
2140
1140
1140
1140
1640
1100
1100
5140
5540
0400
ENDCHAR
STARTCHAR cent
ENCODING 162
SWIDTH 480 0
DWIDTH 10 0
BBX 9 19 0 -3
BITMAP
005400
010400
010400
010A40
02A040
241040
601540
559000
560000
550000
410000
419000
415940
291040
069040
011A40
010400
010400
005000
ENDCHAR
STARTCHAR sterling
ENCODING 163
SWIDTH 594 0
DWIDTH 12 0
BBX 12 14 0 0
BITMAP
006000
014550
024010
029410
021590
165500
550980
411480
550980
165400
011A58
011501
050501
026958
ENDCHAR
STARTCHAR currency
ENCODING 164
SWIDTH 640 0
DWIDTH 13 0
BBX 13 12 0 1
BITMAP
25141500
41569140
51845100
0A942800
08192500
20218100
10924600
0A451800
51412600
41589140
25195600
04000400
ENDCHAR
STARTCHAR yen
ENCODING 165
SWIDTH 575 0
DWIDTH 12 0
BBX 11 14 0 0
BITMAP
040050
260118
414108
205514
046920
0A1450
021040
0AA990
100420
140410
0A9A50
020800
050800
01A400
ENDCHAR
STARTCHAR brokenbar
ENCODING 166
SWIDTH 258 0
DWIDTH 5 0
BBX 5 18 0 -2
BITMAP
1500
1140
1100
2540
6540
1100
1140
5140
1500
0000
2640
1140
1100
2540
1140
1140
5040
2640
ENDCHAR
STARTCHAR section
ENCODING 167
SWIDTH 474 0
DWIDTH 9 0
BBX 9 16 0 -1
BITMAP
000100
25A540
505040
691540
11A400
104640
094580
10A040
115100
259600
284140
064040
155640
401040
155540
140000
ENDCHAR
STARTCHAR dieresis
ENCODING 168
SWIDTH 351 0
DWIDTH 7 0
BBX 7 3 0 15
BITMAP
9998
4444
5894
ENDCHAR
STARTCHAR copyright
ENCODING 169
SWIDTH 719 0
DWIDTH 14 0
BBX 14 16 0 -1
BITMAP
05555000
10556680
20101520
16555510
11154110
65201650
51695510
11140110
11140110
65555650
11295510
11004110
42659A50
55104090
29555540
00000100
ENDCHAR
STARTCHAR ordfeminine
ENCODING 170
SWIDTH 455 0
DWIDTH 9 0
BBX 9 14 0 0
BITMAP
06A400
050400
094500
148100
248200
259500
55A140
A01080
556040
991580
190500
115500
100100
155500
ENDCHAR
STARTCHAR guillemotleft
ENCODING 171
SWIDTH 689 0
DWIDTH 14 0
BBX 13 10 0 2
BITMAP
00500100
01540480
14045040
50620140
41420800
6942A500
50114140
05041040
01600980
00400100
ENDCHAR
STARTCHAR logicalnot
ENCODING 172
SWIDTH 591 0
DWIDTH 12 0
BBX 11 9 0 0
BITMAP
101000
556564
401098
555544
155444
000044
000044
000058
000010
ENDCHAR
STARTCHAR uni00AD
ENCODING 173
SWIDTH 465 0
DWIDTH 9 0
BBX 9 5 0 4
BITMAP
155100
515580
401040
555540
100000
ENDCHAR
STARTCHAR registered
ENCODING 174
SWIDTH 719 0
DWIDTH 14 0
BBX 14 16 0 -1
BITMAP
05555000
10556680
20101520
16555510
11040110
65255650
51291510
11155110
11140110
65140650
11580510
11140110
42659A50
55104090
29555540
00000100
ENDCHAR
STARTCHAR macron
ENCODING 175
SWIDTH 263 0
DWIDTH 5 0
BBX 6 3 0 15
BITMAP
5540
4050
5580
ENDCHAR
STARTCHAR degree
ENCODING 176
SWIDTH 333 0
DWIDTH 7 0
BBX 7 6 0 8
BITMAP
0440
1650
1210
8954
65A0
1560
ENDCHAR
STARTCHAR plusminus
ENCODING 177
SWIDTH 464 0
DWIDTH 9 0
BBX 9 14 0 -3
BITMAP
016000
010400
155500
555580
401040
555540
115100
011400
019000
155100
515580
401040
555540
100000
ENDCHAR
STARTCHAR twosuperior
ENCODING 178
SWIDTH 324 0
DWIDTH 6 0
BBX 6 8 0 6
BITMAP
5550
4010
5550
0440
1040
5150
2510
1550
ENDCHAR
STARTCHAR threesuperior
ENCODING 179
SWIDTH 332 0
DWIDTH 7 0
BBX 6 8 0 6
BITMAP
5550
4020
5560
0510
0510
1610
5160
1550
ENDCHAR
STARTCHAR acute
ENCODING 180
SWIDTH 202 0
DWIDTH 4 0
BBX 4 5 0 15
BITMAP
04
16
12
88
64
ENDCHAR
STARTCHAR mu
ENCODING 181
SWIDTH 582 0
DWIDTH 12 0
BBX 11 17 0 -3
BITMAP
054160
208504
104214
104114
204254
258204
204104
104208
104248
104258
259668
10A018
115024
1196A8
514050
504000
150000
ENDCHAR
STARTCHAR paragraph
ENCODING 182
SWIDTH 556 0
DWIDTH 11 0
BBX 11 16 0 -1
BITMAP
000200
006490
068054
544190
405910
564550
645910
142920
054520
014510
002950
000810
000420
000410
000520
000140
ENDCHAR
STARTCHAR periodcentered
ENCODING 183
SWIDTH 215 0
DWIDTH 4 0
BBX 4 4 0 5
BITMAP
55
51
55
04
ENDCHAR
STARTCHAR cedilla
ENCODING 184
SWIDTH 237 0
DWIDTH 5 0
BBX 5 7 0 -5
BITMAP
0140
0440
0440
1840
9640
9500
1000
ENDCHAR
STARTCHAR onesuperior
ENCODING 185
SWIDTH 286 0
DWIDTH 6 0
BBX 5 8 0 6
BITMAP
0540
1440
4180
4840
1440
0440
0440
0540
ENDCHAR
STARTCHAR ordmasculine
ENCODING 186
SWIDTH 476 0
DWIDTH 10 0
BBX 9 14 0 0
BITMAP
25A640
501180
501980
666440
510440
510440
42A980
561080
541040
255540
050000
105600
100100
195500
ENDCHAR
STARTCHAR guillemotright
ENCODING 187
SWIDTH 689 0
DWIDTH 14 0
BBX 14 10 0 2
BITMAP
04005000
22015400
40510500
14154050
05081450
05A82690
14154080
50810500
25015400
04001000
ENDCHAR
STARTCHAR onequarter
ENCODING 188
SWIDTH 790 0
DWIDTH 16 0
BBX 16 14 0 0
BITMAP
01404000
14511000
41511000
45111000
15151000
01145000
04144050
01544114
00184454
00115484
00111158
00111508
00110595
00150054
ENDCHAR
STARTCHAR onehalf
ENCODING 189
SWIDTH 771 0
DWIDTH 15 0
BBX 15 14 0 0
BITMAP
01404000
14511000
41511000
45111000
15151000
01145000
04144510
01545044
00185144
00114514
00110410
00110454
00111044
00150A54
ENDCHAR
STARTCHAR threequarters
ENCODING 190
SWIDTH 817 0
DWIDTH 16 0
BBX 16 14 0 0
BITMAP
55505000
40204400
55604400
06110400
05125000
16111000
11611014
15551044
00051115
00045421
00044455
00144906
00104565
00050015
ENDCHAR
STARTCHAR questiondown
ENCODING 191
SWIDTH 455 0
DWIDTH 9 0
BBX 9 14 0 0
BITMAP
005500
004100
005500
000000
005500
004500
00A500
050900
641400
659000
405500
504040
164080
005640
ENDCHAR
STARTCHAR Agrave
ENCODING 192
SWIDTH 507 0
DWIDTH 10 0
BBX 11 20 0 0
BITMAP
014000
055000
011000
011000
009000
000000
069000
041800
042100
081100
195200
146540
106140
205090
25A954
115404
510564
825910
810420
650690
ENDCHAR
STARTCHAR Aacute
ENCODING 193
SWIDTH 507 0
DWIDTH 10 0
BBX 11 20 0 0
BITMAP
000100
000940
001540
001100
002800
000000
069000
041800
042100
081100
195200
146540
106140
205090
25A954
115404
510564
825910
810420
650690
ENDCHAR
STARTCHAR Acircumflex
ENCODING 194
SWIDTH 507 0
DWIDTH 10 0
BBX 11 20 0 0
BITMAP
00A400
011800
052100
045140
054A00
000000
069000
041800
042100
081100
195200
146540
106140
205090
25A954
115404
510564
825910
810420
650690
ENDCHAR
STARTCHAR Atilde
ENCODING 195
SWIDTH 507 0
DWIDTH 10 0
BBX 11 19 0 0
BITMAP
02A250
042450
048880
114600
152A00
069000
041800
042100
081100
195200
146540
106140
205090
25A954
115404
510564
825910
810420
650690
ENDCHAR
STARTCHAR Adieresis
ENCODING 196
SWIDTH 507 0
DWIDTH 10 0
BBX 11 18 0 0
BITMAP
099540
045040
095A40
000000
069000
041800
042100
081100
195200
146540
106140
205090
25A954
115404
510564
825910
810420
650690
ENDCHAR
STARTCHAR Aring
ENCODING 197
SWIDTH 507 0
DWIDTH 10 0
BBX 11 20 0 0
BITMAP
009400
022100
056100
05A540
050600
015500
069000
041800
042100
081100
195200
146540
106140
205090
25A954
115404
510564
825910
810420
650690
ENDCHAR
STARTCHAR AE
ENCODING 198
SWIDTH 797 0
DWIDTH 16 0
BBX 17 14 -1 0
BITMAP
00056AA540
0005811040
0010511080
0020825540
00A1960000
0046825400
0105810400
0108810400
0A59965400
0860810000
1065829600
5080414040
5040424040
1A009A5600
ENDCHAR
STARTCHAR Ccedilla
ENCODING 199
SWIDTH 515 0
DWIDTH 10 0
BBX 11 19 0 -5
BITMAP
156950
100410
100414
199560
254000
108000
104000
204000
254000
114000
516960
811414
660450
256A50
041100
005100
025900
015400
014000
ENDCHAR
STARTCHAR Egrave
ENCODING 200
SWIDTH 490 0
DWIDTH 10 0
BBX 10 20 0 0
BITMAP
004000
021000
021000
015400
00A000
000000
26A590
205010
205010
209550
254000
109500
214100
114100
259900
104000
11A580
115010
505010
265580
ENDCHAR
STARTCHAR Eacute
ENCODING 201
SWIDTH 490 0
DWIDTH 10 0
BBX 10 20 0 0
BITMAP
000400
001600
001200
008800
006000
000000
26A590
205010
205010
209550
254000
109500
214100
114100
259900
104000
11A580
115010
505010
265580
ENDCHAR
STARTCHAR Ecircumflex
ENCODING 202
SWIDTH 490 0
DWIDTH 10 0
BBX 10 20 0 0
BITMAP
00A400
011800
052100
045100
064A00
000000
26A590
205010
205010
209550
254000
109500
214100
114100
259900
104000
11A580
115010
505010
265580
ENDCHAR
STARTCHAR Edieresis
ENCODING 203
SWIDTH 490 0
DWIDTH 10 0
BBX 10 18 0 0
BITMAP
099540
045040
095600
000000
26A590
205010
205010
209550
254000
109500
214100
114100
259900
104000
11A580
115010
505010
265580
ENDCHAR
STARTCHAR Igrave
ENCODING 204
SWIDTH 266 0
DWIDTH 5 0
BBX 5 20 0 0
BITMAP
1400
8400
8400
1100
1500
0000
2640
2040
2040
2040
2540
1040
2140
2140
2540
1040
1140
1140
5040
2640
ENDCHAR
STARTCHAR Iacute
ENCODING 205
SWIDTH 266 0
DWIDTH 5 0
BBX 6 20 0 0
BITMAP
0040
0160
0120
0880
0600
0000
2640
2040
2040
2040
2540
1040
2140
2140
2540
1040
1140
1140
5040
2640
ENDCHAR
STARTCHAR Icircumflex
ENCODING 206
SWIDTH 266 0
DWIDTH 5 0
BBX 6 20 0 0
BITMAP
1A40
1180
4550
4520
6150
0000
2640
2040
2040
2040
2540
1040
2140
2140
2540
1040
1140
1140
5040
2640
ENDCHAR
STARTCHAR Idieresis
ENCODING 207
SWIDTH 266 0
DWIDTH 5 0
BBX 7 18 -1 0
BITMAP
5558
4144
6558
0000
0990
0810
0810
0810
0950
0410
0850
0850
0950
0410
0450
0450
1410
0990
ENDCHAR
STARTCHAR Eth
ENCODING 208
SWIDTH 669 0
DWIDTH 13 0
BBX 15 16 -1 -1
BITMAP
00014000
00295000
00281400
00250600
00214640
00259450
25645414
50054514
500546A4
15796414
0010D450
00114140
00114500
00505400
00265000
00004000
ENDCHAR
STARTCHAR Ntilde
ENCODING 209
SWIDTH 598 0
DWIDTH 12 0
BBX 12 20 0 0
BITMAP
005854
004944
022210
045490
014580
000000
2A8098
209145
206044
205544
259994
104604
214244
218148
259594
116084
115454
114818
504424
2646E8
ENDCHAR
STARTCHAR Ograve
ENCODING 210
SWIDTH 612 0
DWIDTH 12 0
BBX 12 21 0 -1
BITMAP
001400
009400
004400
001100
001500
000000
156964
100418
100418
1996A4
254154
108144
104044
204045
254095
114081
516999
810406
66041A
259568
040000
ENDCHAR
STARTCHAR Oacute
ENCODING 211
SWIDTH 612 0
DWIDTH 12 0
BBX 12 21 0 -1
BITMAP
000040
000250
000450
001540
000A00
000000
156964
100418
100418
1996A4
254154
108144
104044
204045
254095
114081
516999
810406
66041A
259568
040000
ENDCHAR
STARTCHAR Ocircumflex
ENCODING 212
SWIDTH 612 0
DWIDTH 12 0
BBX 12 21 0 -1
BITMAP
002A00
005200
004880
011510
015280
000000
156964
100418
100418
1996A4
254154
108144
104044
204045
254095
114081
516999
810406
66041A
259568
040000
ENDCHAR
STARTCHAR Otilde
ENCODING 213
SWIDTH 612 0
DWIDTH 12 0
BBX 12 21 0 -1
BITMAP
005854
004948
011554
011850
018580
000000
156964
100418
100418
1996A4
254154
108144
104044
204045
254095
114081
516999
810406
66041A
259568
040000
ENDCHAR
STARTCHAR Odieresis
ENCODING 214
SWIDTH 612 0
DWIDTH 12 0
BBX 12 19 0 -1
BITMAP
056550
011450
025580
000000
156964
100418
100418
1996A4
254154
108144
104044
204045
254095
114081
516999
810406
66041A
259568
040000
ENDCHAR
STARTCHAR multiply
ENCODING 215
SWIDTH 421 0
DWIDTH 8 0
BBX 8 7 0 3
BITMAP
2629
5182
5021
1858
5605
4182
2528
ENDCHAR
STARTCHAR Oslash
ENCODING 216
SWIDTH 612 0
DWIDTH 12 0
BBX 12 15 0 -1
BITMAP
156964
100448
100504
199918
254924
109154
109084
208245
258595
126481
551999
841406
60441A
209568
0A0000
ENDCHAR
STARTCHAR Ugrave
ENCODING 217
SWIDTH 583 0
DWIDTH 12 0
BBX 12 20 0 -1
BITMAP
005000
015000
014400
004400
002400
194264
104104
104104
108104
258258
104208
104208
114208
654258
114258
516668
815018
561065
2556A8
050000
ENDCHAR
STARTCHAR Uacute
ENCODING 218
SWIDTH 583 0
DWIDTH 12 0
BBX 12 21 0 -1
BITMAP
000100
000940
001440
001100
002800
000000
194264
104104
104104
108104
258258
104208
104208
114208
654258
114258
516668
815018
561065
2556A8
050000
ENDCHAR
STARTCHAR Ucircumflex
ENCODING 219
SWIDTH 583 0
DWIDTH 12 0
BBX 12 21 0 -1
BITMAP
005800
004900
022500
051480
028540
000000
194264
104104
104104
108104
258258
104208
104208
114208
654258
114258
516668
815018
561065
2556A8
050000
ENDCHAR
STARTCHAR Udieresis
ENCODING 220
SWIDTH 583 0
DWIDTH 12 0
BBX 12 19 0 -1
BITMAP
055980
041440
068540
000000
194264
104104
104104
108104
258258
104208
104208
114208
654258
114258
516668
815018
561065
2556A8
050000
ENDCHAR
STARTCHAR Yacute
ENCODING 221
SWIDTH 484 0
DWIDTH 10 0
BBX 11 19 -1 0
BITMAP
000100
000540
000440
002200
002800
050090
220108
504108
105514
085A10
061450
011040
009040
005540
008200
014500
020800
020400
00A400
ENDCHAR
STARTCHAR Thorn
ENCODING 222
SWIDTH 520 0
DWIDTH 10 0
BBX 11 15 0 -1
BITMAP
164000
118000
189400
240A00
290454
119404
215A54
215864
24A060
254540
114500
116000
508000
654000
040000
ENDCHAR
STARTCHAR germandbls
ENCODING 223
SWIDTH 884 0
DWIDTH 18 0
BBX 18 16 0 -1
BITMAP
0001000040
1595456550
65409A5010
4155605590
5190106400
2040042000
1550055400
0820020800
0508014500
0115008500
0082006040
169145A050
9460A55420
4066501980
5555255540
1000040000
ENDCHAR
STARTCHAR agrave
ENCODING 224
SWIDTH 507 0
DWIDTH 10 0
BBX 11 20 0 0
BITMAP
014000
055000
011000
011000
009000
000000
069000
041800
042100
081100
195200
146540
106140
205090
25A954
115404
510564
825910
810420
650690
ENDCHAR
STARTCHAR aacute
ENCODING 225
SWIDTH 507 0
DWIDTH 10 0
BBX 11 20 0 0
BITMAP
000100
000940
001540
001100
002800
000000
069000
041800
042100
081100
195200
146540
106140
205090
25A954
115404
510564
825910
810420
650690
ENDCHAR
STARTCHAR acircumflex
ENCODING 226
SWIDTH 507 0
DWIDTH 10 0
BBX 11 20 0 0
BITMAP
00A400
011800
052100
045140
054A00
000000
069000
041800
042100
081100
195200
146540
106140
205090
25A954
115404
510564
825910
810420
650690
ENDCHAR
STARTCHAR atilde
ENCODING 227
SWIDTH 507 0
DWIDTH 10 0
BBX 11 19 0 0
BITMAP
02A250
042450
048880
114600
152A00
069000
041800
042100
081100
195200
146540
106140
205090
25A954
115404
510564
825910
810420
650690
ENDCHAR
STARTCHAR adieresis
ENCODING 228
SWIDTH 507 0
DWIDTH 10 0
BBX 11 18 0 0
BITMAP
099540
045040
095A40
000000
069000
041800
042100
081100
195200
146540
106140
205090
25A954
115404
510564
825910
810420
650690
ENDCHAR
STARTCHAR aring
ENCODING 229
SWIDTH 507 0
DWIDTH 10 0
BBX 11 20 0 0
BITMAP
009400
022100
056100
05A540
050600
015500
069000
041800
042100
081100
195200
146540
106140
205090
25A954
115404
510564
825910
810420
650690
ENDCHAR
STARTCHAR ae
ENCODING 230
SWIDTH 797 0
DWIDTH 16 0
BBX 17 14 -1 0
BITMAP
00056AA540
0005811040
0010511080
0020825540
00A1960000
0046825400
0105810400
0108810400
0A59965400
0860810000
1065829600
5080414040
5040424040
1A009A5600
ENDCHAR
STARTCHAR ccedilla
ENCODING 231
SWIDTH 515 0
DWIDTH 10 0
BBX 11 19 0 -5
BITMAP
156950
100410
100414
199560
254000
108000
104000
204000
254000
114000
516960
811414
660450
256A50
041100
005100
025900
015400
014000
ENDCHAR
STARTCHAR egrave
ENCODING 232
SWIDTH 490 0
DWIDTH 10 0
BBX 10 20 0 0
BITMAP
004000
021000
021000
015400
00A000
000000
26A590
205010
205010
209550
254000
109500
214100
114100
259900
104000
11A580
115010
505010
265580
ENDCHAR
STARTCHAR eacute
ENCODING 233
SWIDTH 490 0
DWIDTH 10 0
BBX 10 20 0 0
BITMAP
000400
001600
001200
008800
006000
000000
26A590
205010
205010
209550
254000
109500
214100
114100
259900
104000
11A580
115010
505010
265580
ENDCHAR
STARTCHAR ecircumflex
ENCODING 234
SWIDTH 490 0
DWIDTH 10 0
BBX 10 20 0 0
BITMAP
00A400
011800
052100
045100
064A00
000000
26A590
205010
205010
209550
254000
109500
214100
114100
259900
104000
11A580
115010
505010
265580
ENDCHAR
STARTCHAR edieresis
ENCODING 235
SWIDTH 490 0
DWIDTH 10 0
BBX 10 18 0 0
BITMAP
099540
045040
095600
000000
26A590
205010
205010
209550
254000
109500
214100
114100
259900
104000
11A580
115010
505010
265580
ENDCHAR
STARTCHAR igrave
ENCODING 236
SWIDTH 266 0
DWIDTH 5 0
BBX 5 20 0 0
BITMAP
1400
8400
8400
1100
1500
0000
2640
2040
2040
2040
2540
1040
2140
2140
2540
1040
1140
1140
5040
2640
ENDCHAR
STARTCHAR iacute
ENCODING 237
SWIDTH 266 0
DWIDTH 5 0
BBX 6 20 0 0
BITMAP
0040
0160
0120
0880
0600
0000
2640
2040
2040
2040
2540
1040
2140
2140
2540
1040
1140
1140
5040
2640
ENDCHAR
STARTCHAR icircumflex
ENCODING 238
SWIDTH 266 0
DWIDTH 5 0
BBX 6 20 0 0
BITMAP
1A40
1180
4550
4520
6150
0000
2640
2040
2040
2040
2540
1040
2140
2140
2540
1040
1140
1140
5040
2640
ENDCHAR
STARTCHAR idieresis
ENCODING 239
SWIDTH 266 0
DWIDTH 5 0
BBX 7 18 -1 0
BITMAP
5558
4144
6558
0000
0990
0810
0810
0810
0950
0410
0850
0850
0950
0410
0450
0450
1410
0990
ENDCHAR
STARTCHAR eth
ENCODING 240
SWIDTH 669 0
DWIDTH 13 0
BBX 15 16 -1 -1
BITMAP
00014000
00295000
00281400
00250600
00214640
00259450
25645414
50054514
500546A4
15796414
0010D450
00114140
00114500
00505400
00265000
00004000
ENDCHAR
STARTCHAR ntilde
ENCODING 241
SWIDTH 598 0
DWIDTH 12 0
BBX 12 20 0 0
BITMAP
005854
004944
022210
045490
014580
000000
2A8098
209145
206044
205544
259994
104604
214244
218148
259594
116084
115454
114818
504424
2646E8
ENDCHAR
STARTCHAR ograve
ENCODING 242
SWIDTH 612 0
DWIDTH 12 0
BBX 12 21 0 -1
BITMAP
001400
009400
004400
001100
001500
000000
156964
100418
100418
1996A4
254154
108144
104044
204045
254095
114081
516999
810406
66041A
259568
040000
ENDCHAR
STARTCHAR oacute
ENCODING 243
SWIDTH 612 0
DWIDTH 12 0
BBX 12 21 0 -1
BITMAP
000040
000250
000450
001540
000A00
000000
156964
100418
100418
1996A4
254154
108144
104044
204045
254095
114081
516999
810406
66041A
259568
040000
ENDCHAR
STARTCHAR ocircumflex
ENCODING 244
SWIDTH 612 0
DWIDTH 12 0
BBX 12 21 0 -1
BITMAP
002A00
005200
004880
011510
015280
000000
156964
100418
100418
1996A4
254154
108144
104044
204045
254095
114081
516999
810406
66041A
259568
040000
ENDCHAR
STARTCHAR otilde
ENCODING 245
SWIDTH 612 0
DWIDTH 12 0
BBX 12 21 0 -1
BITMAP
005854
004948
011554
011850
018580
000000
156964
100418
100418
1996A4
254154
108144
104044
204045
254095
114081
516999
810406
66041A
259568
040000
ENDCHAR
STARTCHAR odieresis
ENCODING 246
SWIDTH 612 0
DWIDTH 12 0
BBX 12 19 0 -1
BITMAP
056550
011450
025580
000000
156964
100418
100418
1996A4
254154
108144
104044
204045
254095
114081
516999
810406
66041A
259568
040000
ENDCHAR
STARTCHAR divide
ENCODING 247
SWIDTH 457 0
DWIDTH 9 0
BBX 9 12 0 1
BITMAP
004000
026000
011000
016000
155500
415540
405040
555540
104000
026000
011000
016000
ENDCHAR
STARTCHAR oslash
ENCODING 248
SWIDTH 612 0
DWIDTH 12 0
BBX 12 15 0 -1
BITMAP
156964
100448
100504
199918
254924
109154
109084
208245
258595
126481
551999
841406
60441A
209568
0A0000
ENDCHAR
STARTCHAR ugrave
ENCODING 249
SWIDTH 583 0
DWIDTH 12 0
BBX 12 20 0 -1
BITMAP
005000
015000
014400
004400
002400
194264
104104
104104
108104
258258
104208
104208
114208
654258
114258
516668
815018
561065
2556A8
050000
ENDCHAR
STARTCHAR uacute
ENCODING 250
SWIDTH 583 0
DWIDTH 12 0
BBX 12 21 0 -1
BITMAP
000100
000940
001440
001100
002800
000000
194264
104104
104104
108104
258258
104208
104208
114208
654258
114258
516668
815018
561065
2556A8
050000
ENDCHAR
STARTCHAR ucircumflex
ENCODING 251
SWIDTH 583 0
DWIDTH 12 0
BBX 12 21 0 -1
BITMAP
005800
004900
022500
051480
028540
000000
194264
104104
104104
108104
258258
104208
104208
114208
654258
114258
516668
815018
561065
2556A8
050000
ENDCHAR
STARTCHAR udieresis
ENCODING 252
SWIDTH 583 0
DWIDTH 12 0
BBX 12 19 0 -1
BITMAP
055980
041440
068540
000000
194264
104104
104104
108104
258258
104208
104208
114208
654258
114258
516668
815018
561065
2556A8
050000
ENDCHAR
STARTCHAR yacute
ENCODING 253
SWIDTH 484 0
DWIDTH 10 0
BBX 11 19 -1 0
BITMAP
000100
000540
000440
002200
002800
050090
220108
504108
105514
085A10
061450
011040
009040
005540
008200
014500
020800
020400
00A400
ENDCHAR
STARTCHAR thorn
ENCODING 254
SWIDTH 520 0
DWIDTH 10 0
BBX 11 15 0 -1
BITMAP
164000
118000
189400
240A00
290454
119404
215A54
215864
24A060
254540
114500
116000
508000
654000
040000
ENDCHAR
STARTCHAR ydieresis
ENCODING 255
SWIDTH 484 0
DWIDTH 10 0
BBX 11 17 -1 0
BITMAP
055590
051440
025580
050090
220108
504108
105514
085A10
061450
011040
009040
005540
008200
014500
020800
020400
00A400
ENDCHAR
STARTCHAR Amacron
ENCODING 256
SWIDTH 507 0
DWIDTH 10 0
BBX 11 17 0 0
BITMAP
015500
040100
055500
069000
041800
042100
081100
195200
146540
106140
205090
25A954
115404
510564
825910
810420
650690
ENDCHAR
STARTCHAR amacron
ENCODING 257
SWIDTH 507 0
DWIDTH 10 0
BBX 11 17 0 0
BITMAP
015500
040100
055500
069000
041800
042100
081100
195200
146540
106140
205090
25A954
115404
510564
825910
810420
650690
ENDCHAR
STARTCHAR Abreve
ENCODING 258
SWIDTH 507 0
DWIDTH 10 0
BBX 11 19 0 0
BITMAP
050500
045540
04A500
048600
069800
069000
041800
042100
081100
195200
146540
106140
205090
25A954
115404
510564
825910
810420
650690
ENDCHAR
STARTCHAR abreve
ENCODING 259
SWIDTH 507 0
DWIDTH 10 0
BBX 11 19 0 0
BITMAP
050500
045540
04A500
048600
069800
069000
041800
042100
081100
195200
146540
106140
205090
25A954
115404
510564
825910
810420
650690
ENDCHAR
STARTCHAR Aogonek
ENCODING 260
SWIDTH 507 0
DWIDTH 10 0
BBX 11 18 0 -4
BITMAP
069000
041800
042100
081100
195200
146540
106140
205090
25A954
115404
510564
825910
810420
6506A0
000440
000590
000204
000094
ENDCHAR
STARTCHAR aogonek
ENCODING 261
SWIDTH 507 0
DWIDTH 10 0
BBX 11 18 0 -4
BITMAP
069000
041800
042100
081100
195200
146540
106140
205090
25A954
115404
510564
825910
810420
6506A0
000440
000590
000204
000094
ENDCHAR
STARTCHAR Cacute
ENCODING 262
SWIDTH 515 0
DWIDTH 10 0
BBX 11 21 0 -1
BITMAP
000100
000580
000480
002200
001800
000000
156950
100410
100414
199560
254000
108000
104000
204000
254000
114000
516960
811414
660450
255950
040000
ENDCHAR
STARTCHAR cacute
ENCODING 263
SWIDTH 515 0
DWIDTH 10 0
BBX 11 21 0 -1
BITMAP
000100
000580
000480
002200
001800
000000
156950
100410
100414
199560
254000
108000
104000
204000
254000
114000
516960
811414
660450
255950
040000
ENDCHAR
STARTCHAR Ccircumflex
ENCODING 264
SWIDTH 515 0
DWIDTH 10 0
BBX 11 20 0 -1
BITMAP
002900
004600
014880
011450
015280
156950
100410
100414
199560
254000
108000
104000
204000
254000
114000
516960
811414
660450
255950
040000
ENDCHAR
STARTCHAR ccircumflex
ENCODING 265
SWIDTH 515 0
DWIDTH 10 0
BBX 11 20 0 -1
BITMAP
002900
004600
014880
011450
015280
156950
100410
100414
199560
254000
108000
104000
204000
254000
114000
516960
811414
660450
255950
040000
ENDCHAR
STARTCHAR Cdotaccent
ENCODING 266
SWIDTH 515 0
DWIDTH 10 0
BBX 11 19 0 -1
BITMAP
005500
005100
002500
000000
156950
100410
100414
199560
254000
108000
104000
204000
254000
114000
516960
811414
660450
255950
040000
ENDCHAR
STARTCHAR cdotaccent
ENCODING 267
SWIDTH 515 0
DWIDTH 10 0
BBX 11 19 0 -1
BITMAP
005500
005100
002500
000000
156950
100410
100414
199560
254000
108000
104000
204000
254000
114000
516960
811414
660450
255950
040000
ENDCHAR
STARTCHAR Ccaron
ENCODING 268
SWIDTH 515 0
DWIDTH 10 0
BBX 11 20 0 -1
BITMAP
015280
011840
004540
004600
001900
156950
100410
100414
199560
254000
108000
104000
204000
254000
114000
516960
811414
660450
255950
040000
ENDCHAR
STARTCHAR ccaron
ENCODING 269
SWIDTH 515 0
DWIDTH 10 0
BBX 11 20 0 -1
BITMAP
015280
011840
004540
004600
001900
156950
100410
100414
199560
254000
108000
104000
204000
254000
114000
516960
811414
660450
255950
040000
ENDCHAR
STARTCHAR Dcaron
ENCODING 270
SWIDTH 520 0
DWIDTH 10 0
BBX 11 21 0 -1
BITMAP
054600
046100
011500
011800
006400
014000
295000
281400
250600
214640
259450
105414
214514
1146A4
256414
10D450
114140
114500
505400
265000
004000
ENDCHAR
STARTCHAR dcaron
ENCODING 271
SWIDTH 520 0
DWIDTH 10 0
BBX 11 21 0 -1
BITMAP
054600
046100
011500
011800
006400
014000
295000
281400
250600
214640
259450
105414
214514
1146A4
256414
10D450
114140
114500
505400
265000
004000
ENDCHAR
STARTCHAR Dcroat
ENCODING 272
SWIDTH 669 0
DWIDTH 13 0
BBX 15 16 -1 -1
BITMAP
00014000
00295000
00281400
00250600
00214640
00259450
25645414
50054514
500546A4
15796414
0010D450
00114140
00114500
00505400
00265000
00004000
ENDCHAR
STARTCHAR dcroat
ENCODING 273
SWIDTH 669 0
DWIDTH 13 0
BBX 15 16 -1 -1
BITMAP
00014000
00295000
00281400
00250600
00214640
00259450
25645414
50054514
500546A4
15796414
0010D450
00114140
00114500
00505400
00265000
00004000
ENDCHAR
STARTCHAR Emacron
ENCODING 274
SWIDTH 490 0
DWIDTH 10 0
BBX 10 18 0 0
BITMAP
015400
040100
055500
000000
26A590
205010
205010
209550
254000
109500
214100
114100
259900
104000
11A580
115010
505010
265580
ENDCHAR
STARTCHAR emacron
ENCODING 275
SWIDTH 490 0
DWIDTH 10 0
BBX 10 18 0 0
BITMAP
015400
040100
055500
000000
26A590
205010
205010
209550
254000
109500
214100
114100
259900
104000
11A580
115010
505010
265580
ENDCHAR
STARTCHAR Ebreve
ENCODING 276
SWIDTH 490 0
DWIDTH 10 0
BBX 10 20 0 0
BITMAP
054500
044440
049900
048200
029900
000000
26A590
205010
205010
209550
254000
109500
214100
114100
259900
104000
11A580
115010
505010
265580
ENDCHAR
STARTCHAR ebreve
ENCODING 277
SWIDTH 490 0
DWIDTH 10 0
BBX 10 20 0 0
BITMAP
054500
044440
049900
048200
029900
000000
26A590
205010
205010
209550
254000
109500
214100
114100
259900
104000
11A580
115010
505010
265580
ENDCHAR
STARTCHAR Edotaccent
ENCODING 278
SWIDTH 490 0
DWIDTH 10 0
BBX 10 18 0 0
BITMAP
015400
010400
01A000
000000
26A590
205010
205010
209550
254000
109500
214100
114100
259900
104000
11A580
115010
505010
265580
ENDCHAR
STARTCHAR edotaccent
ENCODING 279
SWIDTH 490 0
DWIDTH 10 0
BBX 10 18 0 0
BITMAP
015400
010400
01A000
000000
26A590
205010
205010
209550
254000
109500
214100
114100
259900
104000
11A580
115010
505010
265580
ENDCHAR
STARTCHAR Eogonek
ENCODING 280
SWIDTH 490 0
DWIDTH 10 0
BBX 10 18 0 -4
BITMAP
26A590
205010
205010
209550
254000
109500
214100
114100
259900
104000
11A580
115010
505010
266A80
001100
002640
000810
000240
ENDCHAR
STARTCHAR eogonek
ENCODING 281
SWIDTH 490 0
DWIDTH 10 0
BBX 10 18 0 -4
BITMAP
26A590
205010
205010
209550
254000
109500
214100
114100
259900
104000
11A580
115010
505010
266A80
001100
002640
000810
000240
ENDCHAR
STARTCHAR Ecaron
ENCODING 282
SWIDTH 490 0
DWIDTH 10 0
BBX 10 19 0 0
BITMAP
058940
046140
012100
011800
00A400
26A590
205010
205010
209550
254000
109500
214100
114100
259900
104000
11A580
115010
505010
265580
ENDCHAR
STARTCHAR ecaron
ENCODING 283
SWIDTH 490 0
DWIDTH 10 0
BBX 10 19 0 0
BITMAP
058940
046140
012100
011800
00A400
26A590
205010
205010
209550
254000
109500
214100
114100
259900
104000
11A580
115010
505010
265580
ENDCHAR
STARTCHAR Gcircumflex
ENCODING 284
SWIDTH 557 0
DWIDTH 11 0
BBX 11 20 0 -1
BITMAP
006900
004600
015540
011440
018640
156950
100410
100414
199560
254000
108040
104254
204104
254104
114258
516604
811504
660508
255A54
040000
ENDCHAR
STARTCHAR gcircumflex
ENCODING 285
SWIDTH 557 0
DWIDTH 11 0
BBX 11 20 0 -1
BITMAP
006900
004600
015540
011440
018640
156950
100410
100414
199560
254000
108040
104254
204104
254104
114258
516604
811504
660508
255A54
040000
ENDCHAR
STARTCHAR Gbreve
ENCODING 286
SWIDTH 557 0
DWIDTH 11 0
BBX 11 20 0 -1
BITMAP
014140
055550
012940
011140
019600
156950
100410
100414
199560
254000
108040
104254
204104
254104
114258
516604
811504
660508
255A54
040000
ENDCHAR
STARTCHAR gbreve
ENCODING 287
SWIDTH 557 0
DWIDTH 11 0
BBX 11 20 0 -1
BITMAP
014140
055550
012940
011140
019600
156950
100410
100414
199560
254000
108040
104254
204104
254104
114258
516604
811504
660508
255A54
040000
ENDCHAR
STARTCHAR Gdotaccent
ENCODING 288
SWIDTH 557 0
DWIDTH 11 0
BBX 11 19 0 -1
BITMAP
005600
001100
002500
000000
156950
100410
100414
199560
254000
108040
104254
204104
254104
114258
516604
811504
660508
255A54
040000
ENDCHAR
STARTCHAR gdotaccent
ENCODING 289
SWIDTH 557 0
DWIDTH 11 0
BBX 11 19 0 -1
BITMAP
005600
001100
002500
000000
156950
100410
100414
199560
254000
108040
104254
204104
254104
114258
516604
811504
660508
255A54
040000
ENDCHAR
STARTCHAR Gcommaaccent
ENCODING 290
SWIDTH 557 0
DWIDTH 11 0
BBX 11 19 0 -5
BITMAP
156950
100410
100414
199560
254000
108040
104254
204104
254104
114258
516604
811504
660508
255A54
041000
005800
004800
021000
019000
ENDCHAR
STARTCHAR gcommaaccent
ENCODING 291
SWIDTH 557 0
DWIDTH 11 0
BBX 11 19 0 -5
BITMAP
156950
100410
100414
199560
254000
108040
104254
204104
254104
114258
516604
811504
660508
255A54
041000
005800
004800
021000
019000
ENDCHAR
STARTCHAR Hcircumflex
ENCODING 292
SWIDTH 611 0
DWIDTH 12 0
BBX 12 20 0 0
BITMAP
002900
004600
015440
011440
019640
000000
264158
204204
204104
204104
254258
104208
214109
214291
25A441
105056
115644
119108
504208
264164
ENDCHAR
STARTCHAR hcircumflex
ENCODING 293
SWIDTH 611 0
DWIDTH 12 0
BBX 12 20 0 0
BITMAP
002900
004600
015440
011440
019640
000000
264158
204204
204104
204104
254258
104208
214109
214291
25A441
105056
115644
119108
504208
264164
ENDCHAR
STARTCHAR Hbar
ENCODING 294
SWIDTH 706 0
DWIDTH 14 0
BBX 14 14 0 0
BITMAP
05505640
04204140
2825A650
48201120
49601010
28259660
04105240
04206550
09695010
04241580
0415A500
04244100
04208100
09506600
ENDCHAR
STARTCHAR hbar
ENCODING 295
SWIDTH 706 0
DWIDTH 14 0
BBX 14 14 0 0
BITMAP
05505640
04204140
2825A650
48201120
49601010
28259660
04105240
04206550
09695010
04241580
0415A500
04244100
04208100
09506600
ENDCHAR
STARTCHAR Itilde
ENCODING 296
SWIDTH 266 0
DWIDTH 5 0
BBX 8 20 -1 0
BITMAP
1A56
2191
5555
4618
6164
0000
0990
0810
0810
0810
0950
0410
0850
0850
0950
0410
0450
0450
1410
0990
ENDCHAR
STARTCHAR itilde
ENCODING 297
SWIDTH 266 0
DWIDTH 5 0
BBX 8 20 -1 0
BITMAP
1A56
2191
5555
4618
6164
0000
0990
0810
0810
0810
0950
0410
0850
0850
0950
0410
0450
0450
1410
0990
ENDCHAR
STARTCHAR Imacron
ENCODING 298
SWIDTH 266 0
DWIDTH 5 0
BBX 6 18 0 0
BITMAP
5540
4010
5580
0000
2640
2040
2040
2040
2540
1040
2140
2140
2540
1040
1140
1140
5040
2640
ENDCHAR
STARTCHAR imacron
ENCODING 299
SWIDTH 266 0
DWIDTH 5 0
BBX 6 18 0 0
BITMAP
5540
4010
5580
0000
2640
2040
2040
2040
2540
1040
2140
2140
2540
1040
1140
1140
5040
2640
ENDCHAR
STARTCHAR Ibreve
ENCODING 300
SWIDTH 266 0
DWIDTH 5 0
BBX 7 20 -1 0
BITMAP
1414
5444
1294
1114
1960
0000
0990
0810
0810
0810
0950
0410
0850
0850
0950
0410
0450
0450
1410
0990
ENDCHAR
STARTCHAR ibreve
ENCODING 301
SWIDTH 266 0
DWIDTH 5 0
BBX 7 20 -1 0
BITMAP
1414
5444
1294
1114
1960
0000
0990
0810
0810
0810
0950
0410
0850
0850
0950
0410
0450
0450
1410
0990
ENDCHAR
STARTCHAR Iogonek
ENCODING 302
SWIDTH 266 0
DWIDTH 5 0
BBX 5 19 0 -5
BITMAP
2640
2040
2040
2040
2540
1040
2140
2140
2540
1040
1140
1140
5040
2640
1500
8800
6540
1440
0600
ENDCHAR
STARTCHAR iogonek
ENCODING 303
SWIDTH 266 0
DWIDTH 5 0
BBX 5 19 0 -5
BITMAP
2640
2040
2040
2040
2540
1040
2140
2140
2540
1040
1140
1140
5040
2640
1500
8800
6540
1440
0600
ENDCHAR
STARTCHAR Idotaccent
ENCODING 304
SWIDTH 266 0
DWIDTH 5 0
BBX 5 18 0 0
BITMAP
2640
1100
1600
0000
2640
2040
2040
2040
2540
1040
2140
2140
2540
1040
1140
1140
5040
2640
ENDCHAR
STARTCHAR dotlessi
ENCODING 305
SWIDTH 266 0
DWIDTH 5 0
BBX 5 14 0 0
BITMAP
2640
2040
2040
2040
2540
1040
2140
2140
2540
1040
1140
1140
5040
2640
ENDCHAR
STARTCHAR IJ
ENCODING 306
SWIDTH 750 0
DWIDTH 15 0
BBX 15 15 0 -1
BITMAP
26400264
20400114
20400110
20400110
25400654
10400510
21410510
21554510
25608654
10542510
11458920
11420620
50408154
264012A0
00001400
ENDCHAR
STARTCHAR ij
ENCODING 307
SWIDTH 749 0
DWIDTH 15 0
BBX 15 15 0 -1
BITMAP
26400264
20400114
20400110
20400110
25400654
10400510
21410510
21554510
25608654
10542510
11458920
11420620
50408154
264012A0
00001400
ENDCHAR
STARTCHAR Jcircumflex
ENCODING 308
SWIDTH 484 0
DWIDTH 10 0
BBX 11 20 -1 -1
BITMAP
000290
000460
001484
001144
001928
0006A0
000410
000410
000410
000950
000820
040410
260810
504960
206820
095820
060520
014220
004250
002400
ENDCHAR
STARTCHAR jcircumflex
ENCODING 309
SWIDTH 482 0
DWIDTH 10 0
BBX 11 20 -1 -1
BITMAP
000290
000460
001484
001144
001928
0006A0
000410
000410
000410
000950
000820
040410
260810
504960
206820
095820
060520
014220
004250
002400
ENDCHAR
STARTCHAR Kcommaaccent
ENCODING 310
SWIDTH 541 0
DWIDTH 11 0
BBX 11 19 0 -5
BITMAP
264050
204154
204508
205814
25A550
108180
214200
118900
259480
10A540
115410
114820
504414
264250
001000
005400
014400
011000
028000
ENDCHAR
STARTCHAR kcommaaccent
ENCODING 311
SWIDTH 541 0
DWIDTH 11 0
BBX 11 19 0 -5
BITMAP
264050
204154
204508
205814
25A550
108180
214200
118900
259480
10A540
115410
114820
504414
264250
001000
005400
014400
011000
028000
ENDCHAR
STARTCHAR kgreenlandic
ENCODING 312
SWIDTH 541 0
DWIDTH 11 0
BBX 11 14 0 0
BITMAP
264050
204154
204508
205814
25A550
108180
214200
118900
259480
10A540
115410
114820
504414
264250
ENDCHAR
STARTCHAR Lacute
ENCODING 313
SWIDTH 467 0
DWIDTH 9 0
BBX 10 20 0 0
BITMAP
004000
009400
011400
055000
028000
000000
264000
204000
204000
204000
254000
104000
214000
214000
254000
104000
11A550
115010
509010
26A590
ENDCHAR
STARTCHAR lacute
ENCODING 314
SWIDTH 467 0
DWIDTH 9 0
BBX 10 20 0 0
BITMAP
004000
009400
011400
055000
028000
000000
264000
204000
204000
204000
254000
104000
214000
214000
254000
104000
11A550
115010
509010
26A590
ENDCHAR
STARTCHAR Lcommaaccent
ENCODING 315
SWIDTH 467 0
DWIDTH 9 0
BBX 10 19 0 -5
BITMAP
264000
204000
204000
204000
254000
104000
214000
214000
254000
104000
11A550
115010
509010
26A590
004000
016000
012000
084000
064000
ENDCHAR
STARTCHAR lcommaaccent
ENCODING 316
SWIDTH 467 0
DWIDTH 9 0
BBX 10 19 0 -5
BITMAP
264000
204000
204000
204000
254000
104000
214000
214000
254000
104000
11A550
115010
509010
26A590
004000
016000
012000
084000
064000
ENDCHAR
STARTCHAR Lcaron
ENCODING 317
SWIDTH 467 0
DWIDTH 9 0
BBX 10 15 0 0
BITMAP
000640
264880
205540
206500
204400
254000
104000
214000
214000
254000
104000
11A550
115010
509010
26A590
ENDCHAR
STARTCHAR lcaron
ENCODING 318
SWIDTH 467 0
DWIDTH 9 0
BBX 10 15 0 0
BITMAP
000640
264880
205540
206500
204400
254000
104000
214000
214000
254000
104000
11A550
115010
509010
26A590
ENDCHAR
STARTCHAR Ldot
ENCODING 319
SWIDTH 611 0
DWIDTH 12 0
BBX 12 14 0 0
BITMAP
264000
204000
204000
204000
254000
104055
214041
214055
254014
104000
11A550
115010
509010
26A590
ENDCHAR
STARTCHAR ldotaccent
ENCODING 320
SWIDTH 611 0
DWIDTH 12 0
BBX 12 14 0 0
BITMAP
264000
204000
204000
204000
254000
104055
214041
214055
254014
104000
11A550
115010
509010
26A590
ENDCHAR
STARTCHAR Lslash
ENCODING 321
SWIDTH 505 0
DWIDTH 10 0
BBX 12 14 -1 0
BITMAP
026400
011400
011000
011000
065400
051A00
251140
511600
2A5400
051400
051A58
051505
041504
066954
ENDCHAR
STARTCHAR lslash
ENCODING 322
SWIDTH 505 0
DWIDTH 10 0
BBX 12 14 -1 0
BITMAP
026400
011400
011000
011000
065400
051A00
251140
511600
2A5400
051400
051A58
051505
041504
066954
ENDCHAR
STARTCHAR Nacute
ENCODING 323
SWIDTH 598 0
DWIDTH 12 0
BBX 12 19 0 0
BITMAP
000100
000580
000840
001100
001900
2A8098
209145
206044
205544
259994
104604
214244
218148
259594
116084
115454
114818
504424
2646E8
ENDCHAR
STARTCHAR nacute
ENCODING 324
SWIDTH 598 0
DWIDTH 12 0
BBX 12 19 0 0
BITMAP
000100
000580
000840
001100
001900
2A8098
209145
206044
205544
259994
104604
214244
218148
259594
116084
115454
114818
504424
2646E8
ENDCHAR
STARTCHAR Ncommaaccent
ENCODING 325
SWIDTH 598 0
DWIDTH 12 0
BBX 12 19 0 -5
BITMAP
2A8098
209145
206044
205544
259994
104604
214244
218148
259594
116084
115454
114818
504424
2646E8
001000
001400
008400
015400
015000
ENDCHAR
STARTCHAR ncommaaccent
ENCODING 326
SWIDTH 598 0
DWIDTH 12 0
BBX 12 19 0 -5
BITMAP
2A8098
209145
206044
205544
259994
104604
214244
218148
259594
116084
115454
114818
504424
2646E8
001000
001400
008400
015400
015000
ENDCHAR
STARTCHAR Ncaron
ENCODING 327
SWIDTH 598 0
DWIDTH 12 0
BBX 12 19 0 0
BITMAP
015280
011850
004840
004600
002900
2A8098
209145
206044
205544
259994
104604
214244
218148
259594
116084
115454
114818
504424
2646E8
ENDCHAR
STARTCHAR ncaron
ENCODING 328
SWIDTH 598 0
DWIDTH 12 0
BBX 12 19 0 0
BITMAP
015280
011850
004840
004600
002900
2A8098
209145
206044
205544
259994
104604
214244
218148
259594
116084
115454
114818
504424
2646E8
ENDCHAR
STARTCHAR napostrophe
ENCODING 329
SWIDTH 807 0
DWIDTH 16 0
BBX 16 14 0 0
BITMAP
191A9099
2220A041
45206085
94204445
10259595
00208645
00208244
00209144
0025A595
00206045
00104414
00204818
00108515
002542A8
ENDCHAR
STARTCHAR Eng
ENCODING 330
SWIDTH 595 0
DWIDTH 12 0
BBX 12 19 0 -5
BITMAP
2A8064
109145
106144
105544
259944
1046A4
114304
118148
259588
106084
115464
114818
504428
264684
000694
056918
040414
040550
059400
ENDCHAR
STARTCHAR eng
ENCODING 331
SWIDTH 595 0
DWIDTH 12 0
BBX 12 19 0 -5
BITMAP
2A8064
109145
106144
105544
259944
1046A4
114304
118148
259588
106084
115464
114818
504428
264684
000694
056918
040414
040550
059400
ENDCHAR
STARTCHAR Omacron
ENCODING 332
SWIDTH 612 0
DWIDTH 12 0
BBX 12 18 0 -1
BITMAP
005540
014040
009540
156964
100418
100418
1996A4
254154
108144
104044
204045
254095
114081
516999
810406
66041A
259568
040000
ENDCHAR
STARTCHAR omacron
ENCODING 333
SWIDTH 612 0
DWIDTH 12 0
BBX 12 18 0 -1
BITMAP
005540
014040
009540
156964
100418
100418
1996A4
254154
108144
104044
204045
254095
114081
516999
810406
66041A
259568
040000
ENDCHAR
STARTCHAR Obreve
ENCODING 334
SWIDTH 612 0
DWIDTH 12 0
BBX 12 20 0 -1
BITMAP
015140
011110
012640
012080
00A640
156964
100418
100418
1996A4
254154
108144
104044
204045
254095
114081
516999
810406
66041A
259568
040000
ENDCHAR
STARTCHAR obreve
ENCODING 335
SWIDTH 612 0
DWIDTH 12 0
BBX 12 20 0 -1
BITMAP
015140
011110
012640
012080
00A640
156964
100418
100418
1996A4
254154
108144
104044
204045
254095
114081
516999
810406
66041A
259568
040000
ENDCHAR
STARTCHAR Ohungarumlaut
ENCODING 336
SWIDTH 612 0
DWIDTH 12 0
BBX 12 21 0 -1
BITMAP
000410
001558
001288
008910
006190
000000
156964
100418
100418
1996A4
254154
108144
104044
204045
254095
114081
516999
810406
66041A
259568
040000
ENDCHAR
STARTCHAR ohungarumlaut
ENCODING 337
SWIDTH 612 0
DWIDTH 12 0
BBX 12 21 0 -1
BITMAP
000410
001558
001288
008910
006190
000000
156964
100418
100418
1996A4
254154
108144
104044
204045
254095
114081
516999
810406
66041A
259568
040000
ENDCHAR
STARTCHAR OE
ENCODING 338
SWIDTH 831 0
DWIDTH 17 0
BBX 17 15 0 -1
BITMAP
1569BA9600
1004154040
1004194040
1995A65600
2541950000
1081466000
1040440400
2040440400
2541966400
1141450000
516A659500
8104144140
6604654140
2559A95600
0400000000
ENDCHAR
STARTCHAR oe
ENCODING 339
SWIDTH 831 0
DWIDTH 17 0
BBX 17 15 0 -1
BITMAP
1569BA9600
1004154040
1004194040
1995A65600
2541950000
1081466000
1040440400
2040440400
2541966400
1141450000
516A659500
8104144140
6604654140
2559A95600
0400000000
ENDCHAR
STARTCHAR Racute
ENCODING 340
SWIDTH 532 0
DWIDTH 11 0
BBX 11 20 0 -1
BITMAP
000100
000540
001440
002100
012800
189400
240A00
290464
219404
245A54
205460
11A550
215240
209040
25A140
118910
114414
504108
514154
150040
ENDCHAR
STARTCHAR racute
ENCODING 341
SWIDTH 532 0
DWIDTH 11 0
BBX 11 20 0 -1
BITMAP
000100
000540
001440
002100
012800
189400
240A00
290464
219404
245A54
205460
11A550
215240
209040
25A140
118910
114414
504108
514154
150040
ENDCHAR
STARTCHAR Rcommaaccent
ENCODING 342
SWIDTH 532 0
DWIDTH 11 0
BBX 11 20 0 -5
BITMAP
010000
189400
240A00
290464
219404
245A54
205460
11A550
215240
209040
25A140
118910
114414
504108
514154
151040
009400
015400
011000
028000
ENDCHAR
STARTCHAR rcommaaccent
ENCODING 343
SWIDTH 532 0
DWIDTH 11 0
BBX 11 20 0 -5
BITMAP
010000
189400
240A00
290464
219404
245A54
205460
11A550
215240
209040
25A140
118910
114414
504108
514154
151040
009400
015400
011000
028000
ENDCHAR
STARTCHAR Rcaron
ENCODING 344
SWIDTH 532 0
DWIDTH 11 0
BBX 11 21 0 -1
BITMAP
058940
052440
012200
014900
006800
010000
189400
240A00
290464
219404
245A54
205460
11A550
215240
209040
25A140
118910
114414
504108
514154
150040
ENDCHAR
STARTCHAR rcaron
ENCODING 345
SWIDTH 532 0
DWIDTH 11 0
BBX 11 21 0 -1
BITMAP
058940
052440
012200
014900
006800
010000
189400
240A00
290464
219404
245A54
205460
11A550
215240
209040
25A140
118910
114414
504108
514154
150040
ENDCHAR
STARTCHAR Sacute
ENCODING 346
SWIDTH 442 0
DWIDTH 9 0
BBX 9 21 0 -1
BITMAP
001000
005800
008400
011000
019000
000100
159540
654080
415540
519000
204000
155000
082000
050800
011500
008200
169140
946080
406640
555500
100000
ENDCHAR
STARTCHAR sacute
ENCODING 347
SWIDTH 442 0
DWIDTH 9 0
BBX 9 21 0 -1
BITMAP
001000
005800
008400
011000
019000
000100
159540
654080
415540
519000
204000
155000
082000
050800
011500
008200
169140
946080
406640
555500
100000
ENDCHAR
STARTCHAR Scircumflex
ENCODING 348
SWIDTH 442 0
DWIDTH 9 0
BBX 9 21 0 -1
BITMAP
02A000
052400
048800
115100
152800
000100
159540
654080
415540
519000
204000
155000
082000
050800
011500
008200
169140
946080
406640
555500
100000
ENDCHAR
STARTCHAR scircumflex
ENCODING 349
SWIDTH 442 0
DWIDTH 9 0
BBX 9 21 0 -1
BITMAP
02A000
052400
048800
115100
152800
000100
159540
654080
415540
519000
204000
155000
082000
050800
011500
008200
169140
946080
406640
555500
100000
ENDCHAR
STARTCHAR Scedilla
ENCODING 350
SWIDTH 442 0
DWIDTH 9 0
BBX 9 19 0 -4
BITMAP
000100
159540
654080
415540
519000
204000
155000
082000
050800
011500
008200
169140
946080
406640
559900
104400
058400
046000
094000
ENDCHAR
STARTCHAR scedilla
ENCODING 351
SWIDTH 442 0
DWIDTH 9 0
BBX 9 19 0 -4
BITMAP
000100
159540
654080
415540
519000
204000
155000
082000
050800
011500
008200
169140
946080
406640
559900
104400
058400
046000
094000
ENDCHAR
STARTCHAR Scaron
ENCODING 352
SWIDTH 442 0
DWIDTH 9 0
BBX 9 21 0 -1
BITMAP
162500
118100
048800
046000
029000
000100
159540
654080
415540
519000
204000
155000
082000
050800
011500
008200
169140
946080
406640
555500
100000
ENDCHAR
STARTCHAR scaron
ENCODING 353
SWIDTH 442 0
DWIDTH 9 0
BBX 9 21 0 -1
BITMAP
162500
118100
048800
046000
029000
000100
159540
654080
415540
519000
204000
155000
082000
050800
011500
008200
169140
946080
406640
555500
100000
ENDCHAR
STARTCHAR Tcommaaccent
ENCODING 354
SWIDTH 453 0
DWIDTH 9 0
BBX 9 19 0 -5
BITMAP
959580
404040
455540
566540
010400
065400
011400
011000
011400
065400
011400
011000
041400
066400
010000
014000
045000
154000
150000
ENDCHAR
STARTCHAR tcommaaccent
ENCODING 355
SWIDTH 453 0
DWIDTH 9 0
BBX 9 19 0 -5
BITMAP
959580
404040
455540
566540
010400
065400
011400
011000
011400
065400
011400
011000
041400
066400
010000
014000
045000
154000
150000
ENDCHAR
STARTCHAR Tcaron
ENCODING 356
SWIDTH 453 0
DWIDTH 9 0
BBX 9 20 0 0
BITMAP
091500
045200
044400
012400
01A000
000000
959580
404040
455540
566540
010400
065400
011400
011000
011400
065400
011400
011000
041400
066400
ENDCHAR
STARTCHAR tcaron
ENCODING 357
SWIDTH 453 0
DWIDTH 9 0
BBX 9 20 0 0
BITMAP
091500
045200
044400
012400
01A000
000000
959580
404040
455540
566540
010400
065400
011400
011000
011400
065400
011400
011000
041400
066400
ENDCHAR
STARTCHAR Tbar
ENCODING 358
SWIDTH 455 0
DWIDTH 9 0
BBX 9 15 0 -1
BITMAP
559580
404040
404040
566940
011400
065400
1A6900
100100
100200
1AA900
011400
011000
051400
055400
004000
ENDCHAR
STARTCHAR tbar
ENCODING 359
SWIDTH 455 0
DWIDTH 9 0
BBX 9 15 0 -1
BITMAP
559580
404040
404040
566940
011400
065400
1A6900
100100
100200
1AA900
011400
011000
051400
055400
004000
ENDCHAR
STARTCHAR Utilde
ENCODING 360
SWIDTH 583 0
DWIDTH 12 0
BBX 12 20 0 -1
BITMAP
005854
004944
022210
055490
014580
194264
104104
104104
108104
258258
104208
104208
114208
654258
114258
516668
815018
561065
2556A8
050000
ENDCHAR
STARTCHAR utilde
ENCODING 361
SWIDTH 583 0
DWIDTH 12 0
BBX 12 20 0 -1
BITMAP
005854
004944
022210
055490
014580
194264
104104
104104
108104
258258
104208
104208
114208
654258
114258
516668
815018
561065
2556A8
050000
ENDCHAR
STARTCHAR Umacron
ENCODING 362
SWIDTH 583 0
DWIDTH 12 0
BBX 12 19 0 -1
BITMAP
005500
010040
015540
000000
194264
104104
104104
108104
258258
104208
104208
114208
654258
114258
516668
815018
561065
2556A8
050000
ENDCHAR
STARTCHAR umacron
ENCODING 363
SWIDTH 583 0
DWIDTH 12 0
BBX 12 19 0 -1
BITMAP
005500
010040
015540
000000
194264
104104
104104
108104
258258
104208
104208
114208
654258
114258
516668
815018
561065
2556A8
050000
ENDCHAR
STARTCHAR Ubreve
ENCODING 364
SWIDTH 583 0
DWIDTH 12 0
BBX 12 21 0 -1
BITMAP
014140
044440
015940
011240
019600
000000
194264
104104
104104
108104
258258
104208
104208
114208
654258
114258
516668
815018
561065
2556A8
050000
ENDCHAR
STARTCHAR ubreve
ENCODING 365
SWIDTH 583 0
DWIDTH 12 0
BBX 12 21 0 -1
BITMAP
014140
044440
015940
011240
019600
000000
194264
104104
104104
108104
258258
104208
104208
114208
654258
114258
516668
815018
561065
2556A8
050000
ENDCHAR
STARTCHAR Uring
ENCODING 366
SWIDTH 583 0
DWIDTH 12 0
BBX 12 21 0 -1
BITMAP
005500
004900
021440
016840
024140
015500
194264
104104
104104
108104
258258
104208
104208
114208
654258
114258
516668
815018
561065
2556A8
050000
ENDCHAR
STARTCHAR uring
ENCODING 367
SWIDTH 583 0
DWIDTH 12 0
BBX 12 21 0 -1
BITMAP
005500
004900
021440
016840
024140
015500
194264
104104
104104
108104
258258
104208
104208
114208
654258
114258
516668
815018
561065
2556A8
050000
ENDCHAR
STARTCHAR Uhungarumlaut
ENCODING 368
SWIDTH 583 0
DWIDTH 12 0
BBX 12 21 0 -1
BITMAP
001040
001894
008614
011550
015640
000000
194264
104104
104104
108104
258258
104208
104208
114208
654258
114258
516668
815018
561065
2556A8
050000
ENDCHAR
STARTCHAR uhungarumlaut
ENCODING 369
SWIDTH 583 0
DWIDTH 12 0
BBX 12 21 0 -1
BITMAP
001040
001894
008614
011550
015640
000000
194264
104104
104104
108104
258258
104208
104208
114208
654258
114258
516668
815018
561065
2556A8
050000
ENDCHAR
STARTCHAR Uogonek
ENCODING 370
SWIDTH 583 0
DWIDTH 12 0
BBX 12 19 0 -5
BITMAP
194264
104104
104104
108104
258258
104208
104208
114208
654258
114258
516668
815018
561065
2556A8
050110
000120
000294
000055
000014
ENDCHAR
STARTCHAR uogonek
ENCODING 371
SWIDTH 583 0
DWIDTH 12 0
BBX 12 19 0 -5
BITMAP
194264
104104
104104
108104
258258
104208
104208
114208
654258
114258
516668
815018
561065
2556A8
050110
000120
000294
000055
000014
ENDCHAR
STARTCHAR Wcircumflex
ENCODING 372
SWIDTH 735 0
DWIDTH 15 0
BBX 15 19 0 -1
BITMAP
000A4000
00118000
00122000
00451400
1454A150
82054114
81144514
42185410
51681910
64565860
10511410
10911440
14966440
09825540
08415080
04456040
06049040
05A86540
01400500
ENDCHAR
STARTCHAR wcircumflex
ENCODING 373
SWIDTH 735 0
DWIDTH 15 0
BBX 15 19 0 -1
BITMAP
000A4000
00118000
00122000
00451400
1454A150
82054114
81144514
42185410
51681910
64565860
10511410
10911440
14966440
09825540
08415080
04456040
06049040
05A86540
01400500
ENDCHAR
STARTCHAR Ycircumflex
ENCODING 374
SWIDTH 484 0
DWIDTH 10 0
BBX 11 19 -1 0
BITMAP
005800
004900
011540
011480
018540
050090
220108
504108
105514
085A10
061450
011040
009040
005540
008200
014500
020800
020400
00A400
ENDCHAR
STARTCHAR ycircumflex
ENCODING 375
SWIDTH 484 0
DWIDTH 10 0
BBX 11 19 -1 0
BITMAP
005800
004900
011540
011480
018540
050090
220108
504108
105514
085A10
061450
011040
009040
005540
008200
014500
020800
020400
00A400
ENDCHAR
STARTCHAR Ydieresis
ENCODING 376
SWIDTH 484 0
DWIDTH 10 0
BBX 11 17 -1 0
BITMAP
055590
051440
025580
050090
220108
504108
105514
085A10
061450
011040
009040
005540
008200
014500
020800
020400
00A400
ENDCHAR
STARTCHAR Zacute
ENCODING 377
SWIDTH 458 0
DWIDTH 9 0
BBX 9 19 0 0
BITMAP
000400
002500
005500
004400
00A000
159600
104080
104080
159680
009200
011500
020800
081400
1A2000
205000
509600
424040
814040
2A5600
ENDCHAR
STARTCHAR zacute
ENCODING 378
SWIDTH 458 0
DWIDTH 9 0
BBX 9 19 0 0
BITMAP
000400
002500
005500
004400
00A000
159600
104080
104080
159680
009200
011500
020800
081400
1A2000
205000
509600
424040
814040
2A5600
ENDCHAR
STARTCHAR Zdotaccent
ENCODING 379
SWIDTH 458 0
DWIDTH 9 0
BBX 9 18 0 0
BITMAP
026400
011000
016000
000000
159600
104080
104080
159680
009200
011500
020800
081400
1A2000
205000
509600
424040
814040
2A5600
ENDCHAR
STARTCHAR zdotaccent
ENCODING 380
SWIDTH 458 0
DWIDTH 9 0
BBX 9 18 0 0
BITMAP
026400
011000
016000
000000
159600
104080
104080
159680
009200
011500
020800
081400
1A2000
205000
509600
424040
814040
2A5600
ENDCHAR
STARTCHAR Zcaron
ENCODING 381
SWIDTH 458 0
DWIDTH 9 0
BBX 9 19 0 0
BITMAP
0A1500
049200
044400
012400
01A000
159600
104080
104080
159680
009200
011500
020800
081400
1A2000
205000
509600
424040
814040
2A5600
ENDCHAR
STARTCHAR zcaron
ENCODING 382
SWIDTH 458 0
DWIDTH 9 0
BBX 9 19 0 0
BITMAP
0A1500
049200
044400
012400
01A000
159600
104080
104080
159680
009200
011500
020800
081400
1A2000
205000
509600
424040
814040
2A5600
ENDCHAR
STARTCHAR AEacute
ENCODING 508
SWIDTH 797 0
DWIDTH 16 0
BBX 17 20 -1 0
BITMAP
0000040000
0000050000
0000114000
0000550000
0000640000
0000000000
00056AA540
0005811040
0010511080
0020825540
00A1960000
0046825400
0105810400
0108810400
0A59965400
0860810000
1065829600
5080414040
5040424040
1A009A5600
ENDCHAR
STARTCHAR aeacute
ENCODING 509
SWIDTH 797 0
DWIDTH 16 0
BBX 17 20 -1 0
BITMAP
0000040000
0000050000
0000114000
0000550000
0000640000
0000000000
00056AA540
0005811040
0010511080
0020825540
00A1960000
0046825400
0105810400
0108810400
0A59965400
0860810000
1065829600
5080414040
5040424040
1A009A5600
ENDCHAR
STARTCHAR Oslashacute
ENCODING 510
SWIDTH 612 0
DWIDTH 12 0
BBX 12 21 0 -1
BITMAP
000100
000140
000840
001540
001500
000000
156964
100448
100504
199918
254924
109154
109084
208245
258595
126481
551999
841406
60441A
209568
0A0000
ENDCHAR
STARTCHAR oslashacute
ENCODING 511
SWIDTH 612 0
DWIDTH 12 0
BBX 12 21 0 -1
BITMAP
000100
000140
000840
001540
001500
000000
156964
100448
100504
199918
254924
109154
109084
208245
258595
126481
551999
841406
60441A
209568
0A0000
ENDCHAR
STARTCHAR dotlessj
ENCODING 567
SWIDTH 482 0
DWIDTH 10 0
BBX 10 15 -1 -1
BITMAP
0006A0
000410
000410
000410
000950
000820
040410
260810
504960
206820
095820
060520
014220
004250
002400
ENDCHAR
STARTCHAR circumflex
ENCODING 710
SWIDTH 308 0
DWIDTH 6 0
BBX 6 5 0 15
BITMAP
1A40
1180
5550
4510
6190
ENDCHAR
STARTCHAR caron
ENCODING 711
SWIDTH 310 0
DWIDTH 6 0
BBX 6 5 0 15
BITMAP
9560
8510
1150
1280
1640
ENDCHAR
STARTCHAR breve
ENCODING 728
SWIDTH 333 0
DWIDTH 7 0
BBX 7 5 0 15
BITMAP
5450
4444
4990
4820
2990
ENDCHAR
STARTCHAR dotaccent
ENCODING 729
SWIDTH 166 0
DWIDTH 3 0
BBX 4 3 0 15
BITMAP
99
44
58
ENDCHAR
STARTCHAR ring
ENCODING 730
SWIDTH 309 0
DWIDTH 6 0
BBX 6 6 0 15
BITMAP
1540
2250
4620
9A50
5060
5550
ENDCHAR
STARTCHAR ogonek
ENCODING 731
SWIDTH 226 0
DWIDTH 5 0
BBX 5 7 0 -5
BITMAP
1400
1500
4400
8800
6540
1440
0500
ENDCHAR
STARTCHAR tilde
ENCODING 732
SWIDTH 410 0
DWIDTH 8 0
BBX 8 5 0 15
BITMAP
1A56
2191
5555
4618
6164
ENDCHAR
STARTCHAR hungarumlaut
ENCODING 733
SWIDTH 361 0
DWIDTH 7 0
BBX 7 5 0 15
BITMAP
0410
1658
1284
8910
6590
ENDCHAR
STARTCHAR uni0312
ENCODING 786
SWIDTH 202 0
DWIDTH 4 0
BBX 4 5 0 9
BITMAP
19
22
45
94
10
ENDCHAR
STARTCHAR uni0315
ENCODING 789
SWIDTH 202 0
DWIDTH 4 0
BBX 4 5 0 9
BITMAP
19
22
45
94
10
ENDCHAR
STARTCHAR uni0326
ENCODING 806
SWIDTH 201 0
DWIDTH 4 0
BBX 4 5 0 -5
BITMAP
04
16
12
84
64
ENDCHAR
STARTCHAR Wgrave
ENCODING 7808
SWIDTH 735 0
DWIDTH 15 0
BBX 15 20 0 -1
BITMAP
00050000
00210000
00210000
00054000
00054000
14000150
82054114
81144514
42185410
51681910
64565860
10511410
10911440
14966440
09825540
08415080
04456040
06049040
05A86540
01400500
ENDCHAR
STARTCHAR wgrave
ENCODING 7809
SWIDTH 735 0
DWIDTH 15 0
BBX 15 20 0 -1
BITMAP
00050000
00210000
00210000
00054000
00054000
14000150
82054114
81144514
42185410
51681910
64565860
10511410
10911440
14966440
09825540
08415080
04456040
06049040
05A86540
01400500
ENDCHAR
STARTCHAR Wacute
ENCODING 7810
SWIDTH 735 0
DWIDTH 15 0
BBX 15 20 0 -1
BITMAP
00001000
00009400
00011400
00055000
00028000
14000150
82054114
81144514
42185410
51681910
64565860
10511410
10911440
14966440
09825540
08415080
04456040
06049040
05A86540
01400500
ENDCHAR
STARTCHAR wacute
ENCODING 7811
SWIDTH 735 0
DWIDTH 15 0
BBX 15 20 0 -1
BITMAP
00001000
00009400
00011400
00055000
00028000
14000150
82054114
81144514
42185410
51681910
64565860
10511410
10911440
14966440
09825540
08415080
04456040
06049040
05A86540
01400500
ENDCHAR
STARTCHAR Wdieresis
ENCODING 7812
SWIDTH 735 0
DWIDTH 15 0
BBX 15 18 0 -1
BITMAP
00999400
00454400
00589400
14000150
82054114
81144514
42185410
51681910
64565860
10511410
10911440
14966440
09825540
08415080
04456040
06049040
05A86540
01400500
ENDCHAR
STARTCHAR wdieresis
ENCODING 7813
SWIDTH 735 0
DWIDTH 15 0
BBX 15 18 0 -1
BITMAP
00999400
00454400
00589400
14000150
82054114
81144514
42185410
51681910
64565860
10511410
10911440
14966440
09825540
08415080
04456040
06049040
05A86540
01400500
ENDCHAR
STARTCHAR Ygrave
ENCODING 7922
SWIDTH 484 0
DWIDTH 10 0
BBX 11 19 -1 0
BITMAP
005000
015000
014400
004400
002400
050090
220108
504108
105514
085A10
061450
011040
009040
005540
008200
014500
020800
020400
00A400
ENDCHAR
STARTCHAR ygrave
ENCODING 7923
SWIDTH 484 0
DWIDTH 10 0
BBX 11 19 -1 0
BITMAP
005000
015000
014400
004400
002400
050090
220108
504108
105514
085A10
061450
011040
009040
005540
008200
014500
020800
020400
00A400
ENDCHAR
STARTCHAR endash
ENCODING 8211
SWIDTH 591 0
DWIDTH 12 0
BBX 12 4 0 5
BITMAP
155544
405554
404105
259558
ENDCHAR
STARTCHAR emdash
ENCODING 8212
SWIDTH 726 0
DWIDTH 15 0
BBX 14 4 0 5
BITMAP
15545000
41656560
40101010
25655560
ENDCHAR
STARTCHAR quoteleft
ENCODING 8216
SWIDTH 291 0
DWIDTH 6 0
BBX 6 9 0 6
BITMAP
0540
0420
0410
2440
1180
5140
8100
5200
1400
ENDCHAR
STARTCHAR quoteright
ENCODING 8217
SWIDTH 291 0
DWIDTH 6 0
BBX 6 9 0 6
BITMAP
0540
0420
0410
2440
1180
5140
8100
5200
1400
ENDCHAR
STARTCHAR quotesinglbase
ENCODING 8218
SWIDTH 228 0
DWIDTH 5 0
BBX 5 6 -1 -3
BITMAP
0640
0480
1040
4140
5100
1400
ENDCHAR
STARTCHAR quotedblleft
ENCODING 8220
SWIDTH 532 0
DWIDTH 11 0
BBX 11 9 0 6
BITMAP
054190
042114
041514
244910
118450
515040
811040
522440
140500
ENDCHAR
STARTCHAR quotedblright
ENCODING 8221
SWIDTH 532 0
DWIDTH 11 0
BBX 11 9 0 6
BITMAP
054190
042114
041514
244910
118450
515040
811040
522440
140500
ENDCHAR
STARTCHAR quotedblbase
ENCODING 8222
SWIDTH 448 0
DWIDTH 9 0
BBX 10 6 -1 -3
BITMAP
064240
048450
105410
415040
511100
140500
ENDCHAR
STARTCHAR dagger
ENCODING 8224
SWIDTH 453 0
DWIDTH 9 0
BBX 9 17 0 -1
BITMAP
004000
026400
010400
121400
561940
425440
465840
151500
011000
011400
065400
051400
011000
011000
051400
041400
02A000
ENDCHAR
STARTCHAR daggerdbl
ENCODING 8225
SWIDTH 462 0
DWIDTH 9 0
BBX 9 17 0 -1
BITMAP
004000
025400
010800
010400
561940
424440
565840
151500
021400
011400
165500
551940
411440
551940
151500
050400
02A000
ENDCHAR
STARTCHAR bullet
ENCODING 8226
SWIDTH 275 0
DWIDTH 6 0
BBX 4 4 1 5
BITMAP
54
45
94
10
ENDCHAR
STARTCHAR ellipsis
ENCODING 8230
SWIDTH 605 0
DWIDTH 12 0
BBX 12 4 0 -1
BITMAP
555555
414141
555555
141414
ENDCHAR
STARTCHAR perthousand
ENCODING 8240
SWIDTH 1249 0
DWIDTH 25 0
BBX 25 14 0 0
BITMAP
15501400000000
64145500000000
45544100000000
44444400000000
44448400000000
55845400000000
50454555055400
15611650894240
00025525549540
00012114444440
00011114444440
00041158455440
00041605591540
00014156415A00
ENDCHAR
STARTCHAR guilsinglleft
ENCODING 8249
SWIDTH 359 0
DWIDTH 7 0
BBX 7 10 0 2
BITMAP
0050
0154
1404
5060
4140
6940
5010
0504
0160
0040
ENDCHAR
STARTCHAR guilsinglright
ENCODING 8250
SWIDTH 359 0
DWIDTH 7 0
BBX 7 10 0 2
BITMAP
0400
2200
4050
1414
0508
05A8
1414
5080
2500
0400
ENDCHAR
STARTCHAR fraction
ENCODING 8260
SWIDTH 266 0
DWIDTH 5 0
BBX 6 14 0 0
BITMAP
0100
0450
0440
0440
1440
1140
1100
1100
2100
5500
4100
4400
4400
1400
ENDCHAR
STARTCHAR Euro
ENCODING 8364
SWIDTH 690 0
DWIDTH 14 0
BBX 13 15 0 -1
BITMAP
0055A540
00401080
00404040
05665580
05950000
14420000
09810000
25450000
41950000
41440000
16099580
02084040
01584180
00956540
00100000
ENDCHAR
STARTCHAR partialdiff
ENCODING 8706
SWIDTH 519 0
DWIDTH 10 0
BBX 12 15 -1 -1
BITMAP
001A40
002080
002080
001440
001590
002420
018820
060410
245964
529504
286608
080204
054105
002594
000500
ENDCHAR
STARTCHAR minus
ENCODING 8722
SWIDTH 467 0
DWIDTH 9 0
BBX 9 5 0 4
BITMAP
155100
515580
401040
555540
100000
ENDCHAR
STARTCHAR fi
ENCODING 64257
SWIDTH 741 0
DWIDTH 15 0
BBX 14 14 0 0
BITMAP
26A59660
20501410
20501520
20955410
25400950
10950810
21410410
11410410
25990960
10400420
11400410
11400810
50400820
26400550
ENDCHAR
STARTCHAR fl
ENCODING 64258
SWIDTH 942 0
DWIDTH 19 0
BBX 20 14 0 0
BITMAP
26A5966000
2050141000
2050152000
2095541000
2540095000
1095081000
2141041000
1141041000
2599096000
1040041000
1140042954
1140081404
5040082405
2640056A58
ENDCHAR
STARTCHAR .notdef
ENCODING -1
SWIDTH 200 0
DWIDTH 4 0
BBX 1 1 0 0
BITMAP
00
ENDCHAR
STARTCHAR .null
ENCODING -1
SWIDTH 0 0
DWIDTH 0 0
BBX 1 1 0 0
BITMAP
00
ENDCHAR
STARTCHAR nonmarkingreturn
ENCODING -1
SWIDTH 200 0
DWIDTH 4 0
BBX 1 1 0 0
BITMAP
00
ENDCHAR
ENDFONT
